<?xml version="1.0" encoding="UTF-8"?>
<svg width="139px" height="155px" viewBox="0 0 139 155" version="1.1" xmlns="http://www.w3.org/2000/svg" xmlns:xlink="http://www.w3.org/1999/xlink">
    <title>961DF764-A684-4086-A097-CF7E60C8FC4D</title>
    <defs>
        <path d="M73.7263581,58.0798171 C86.5352343,58.0798171 93,55.7069157 93,53.3299799 C93,50.9530441 84.3708966,49.0261569 73.7263581,49.0261569 C63.0818197,49.0261569 54.4527163,50.9530441 54.4527163,53.3299799 C54.4527163,55.7069157 60.917482,58.0798171 73.7263581,58.0798171 Z" id="path-1"></path>
        <filter x="-162.1%" y="-469.4%" width="424.3%" height="1480.7%" filterUnits="objectBoundingBox" id="filter-2">
            <feOffset dx="0" dy="20" in="SourceAlpha" result="shadowOffsetOuter1"></feOffset>
            <feGaussianBlur stdDeviation="17.5" in="shadowOffsetOuter1" result="shadowBlurOuter1"></feGaussianBlur>
            <feColorMatrix values="0 0 0 0 1   0 0 0 0 0.388235294   0 0 0 0 0  0 0 0 0.15 0" type="matrix" in="shadowBlurOuter1"></feColorMatrix>
        </filter>
        <path d="M93,79.8546278 L93,88.6961771 C93,91.5030181 84.3717706,93 73.7263581,93 C63.0809457,93 54.4527163,91.5030181 54.4527163,88.6961771 L54.4527163,79.8546278 C54.4527163,82.6614688 63.0809457,84.1584507 73.7263581,84.1584507 C84.3717706,84.1584507 93,82.6614688 93,79.8546278 Z" id="path-3"></path>
        <filter x="-162.1%" y="-323.3%" width="424.3%" height="1050.9%" filterUnits="objectBoundingBox" id="filter-4">
            <feOffset dx="0" dy="20" in="SourceAlpha" result="shadowOffsetOuter1"></feOffset>
            <feGaussianBlur stdDeviation="17.5" in="shadowOffsetOuter1" result="shadowBlurOuter1"></feGaussianBlur>
            <feColorMatrix values="0 0 0 0 1   0 0 0 0 0.388235294   0 0 0 0 0  0 0 0 0.15 0" type="matrix" in="shadowBlurOuter1"></feColorMatrix>
        </filter>
        <path d="M93,71.0130785 L93,79.8546278 C93,82.6614688 84.3717706,84.1584507 73.7263581,84.1584507 C63.0809457,84.1584507 54.4527163,82.6614688 54.4527163,79.8546278 L54.4527163,71.0130785 C54.4527163,73.8199195 63.0809457,75.3169014 73.7263581,75.3169014 C84.3717706,75.3169014 93,73.8199195 93,71.0130785 Z" id="path-5"></path>
        <filter x="-162.1%" y="-323.3%" width="424.3%" height="1050.9%" filterUnits="objectBoundingBox" id="filter-6">
            <feOffset dx="0" dy="20" in="SourceAlpha" result="shadowOffsetOuter1"></feOffset>
            <feGaussianBlur stdDeviation="17.5" in="shadowOffsetOuter1" result="shadowBlurOuter1"></feGaussianBlur>
            <feColorMatrix values="0 0 0 0 1   0 0 0 0 0.388235294   0 0 0 0 0  0 0 0 0.15 0" type="matrix" in="shadowBlurOuter1"></feColorMatrix>
        </filter>
        <path d="M93,62.1715292 L93,71.0130785 C93,73.8199195 84.3717706,75.3169014 73.7263581,75.3169014 C63.0809457,75.3169014 54.4527163,73.8199195 54.4527163,71.0130785 L54.4527163,62.1715292 C54.4527163,64.9783702 63.0809457,66.4753521 73.7263581,66.4753521 C84.3717706,66.4753521 93,64.9783702 93,62.1715292 Z" id="path-7"></path>
        <filter x="-162.1%" y="-323.3%" width="424.3%" height="1050.9%" filterUnits="objectBoundingBox" id="filter-8">
            <feOffset dx="0" dy="20" in="SourceAlpha" result="shadowOffsetOuter1"></feOffset>
            <feGaussianBlur stdDeviation="17.5" in="shadowOffsetOuter1" result="shadowBlurOuter1"></feGaussianBlur>
            <feColorMatrix values="0 0 0 0 1   0 0 0 0 0.388235294   0 0 0 0 0  0 0 0 0.15 0" type="matrix" in="shadowBlurOuter1"></feColorMatrix>
        </filter>
        <path d="M93,53.3299799 L93,62.1715292 C93,64.9783702 84.3717706,66.4753521 73.7263581,66.4753521 C63.0809457,66.4753521 54.4527163,64.9783702 54.4527163,62.1715292 L54.4527163,53.3299799 C54.4527163,56.1368209 63.0809457,57.6338028 73.7263581,57.6338028 C84.3717706,57.6338028 93,56.1368209 93,53.3299799 Z" id="path-9"></path>
        <filter x="-162.1%" y="-323.3%" width="424.3%" height="1050.9%" filterUnits="objectBoundingBox" id="filter-10">
            <feOffset dx="0" dy="20" in="SourceAlpha" result="shadowOffsetOuter1"></feOffset>
            <feGaussianBlur stdDeviation="17.5" in="shadowOffsetOuter1" result="shadowBlurOuter1"></feGaussianBlur>
            <feColorMatrix values="0 0 0 0 1   0 0 0 0 0.388235294   0 0 0 0 0  0 0 0 0.15 0" type="matrix" in="shadowBlurOuter1"></feColorMatrix>
        </filter>
    </defs>
    <g id="Page-1" stroke="none" stroke-width="1" fill="none" fill-rule="evenodd">
        <g id="Home" transform="translate(-1093.000000, -3378.000000)">
            <g id="courses" transform="translate(0.000000, 3090.000000)">
                <g id="Group-25-Copy-2" transform="translate(1013.000000, 238.000000)">
                    <g id="Group-24" transform="translate(80.000000, 50.000000)">
                        <circle id="Oval" fill="#FFEBCB" cx="54" cy="54" r="54"></circle>
                        <g id="accounting" transform="translate(11.000000, 7.000000)">
                            <path d="M65.8672032,3.74245473 L65.8672032,34.9919517 L0,34.9919517 L0,4.49094567 C0,1.67474849 1.67474849,0 3.74245473,0 L62.1247485,0 C64.1924547,0 65.8672032,1.67474849 65.8672032,3.74245473 Z" id="Path" fill="#363562"></path>
                            <path d="M65.8672032,34.9919517 L65.8672032,81.3983903 C65.8672032,83.4660966 64.1924547,85.1408451 62.1247485,85.1408451 L3.74245473,85.1408451 C1.67474849,85.1408451 0,83.4660966 0,82.1468813 L0,34.9919517 L65.8672032,34.9919517 Z" id="Path" fill="#363562"></path>
                            <path d="M9.35613682,24.8873239 L9.35613682,10.1046278 C9.35613682,8.65779477 10.5290221,7.48490946 11.9758551,7.48490946 L57.6338028,7.48490946 C59.0806358,7.48490946 60.2535211,8.65779477 60.2535211,10.1046278 L60.2535211,24.8873239 C60.2535211,26.3341569 59.0806358,27.5070423 57.6338028,27.5070423 L11.9758551,27.5070423 C10.5290221,27.5070423 9.35613682,26.3341569 9.35613682,24.8873239 Z" id="Path" fill="#F3F3F3" fill-rule="nonzero"></path>
                            <path d="M15.7183099,27.5070423 L11.9758551,27.5070423 C10.5293964,27.5070423 9.35613682,26.3337827 9.35613682,24.8873239 L9.35613682,10.1046278 C9.35613682,8.65816901 10.5293964,7.48490946 11.9758551,7.48490946 L15.7183099,7.48490946 C14.2718511,7.48490946 13.0985915,8.65816901 13.0985915,10.1046278 L13.0985915,24.8873239 C13.0985915,26.3337827 14.2718511,27.5070423 15.7183099,27.5070423 Z" id="Path" fill="#F3F3F3" fill-rule="nonzero"></path>
                            <path d="M60.0663984,45.0965795 L60.0663984,60.0663984 L34.7112676,60.0663984 L34.7112676,42.4768612 L57.4466801,42.4768612 C58.8931388,42.4768612 60.0663984,43.6501207 60.0663984,45.0965795 Z" id="Path" fill="#F5F5F5" fill-rule="nonzero"></path>
                            <path d="M34.7112676,42.4768612 L34.7112676,60.0663984 L9.35613682,60.0663984 L9.35613682,45.4708249 C9.35613682,43.6501207 10.5293964,42.4768612 11.9758551,42.4768612 L34.7112676,42.4768612 Z" id="Path" fill="#F5F5F5" fill-rule="nonzero"></path>
                            <path d="M34.7112676,60.0663984 L34.7112676,77.6559356 L11.9758551,77.6559356 C10.5293964,77.6559356 9.35613682,76.4826761 9.35613682,75.4104628 L9.35613682,60.0663984 L34.7112676,60.0663984 Z" id="Path" fill="#F5F5F5" fill-rule="nonzero"></path>
                            <path d="M60.0663984,60.0663984 L60.0663984,75.0362173 C60.0663984,76.4826761 58.8931388,77.6559356 57.4466801,77.6559356 L34.7112676,77.6559356 L34.7112676,60.0663984 L60.0663984,60.0663984 Z" id="Path" fill="#F5F5F5" fill-rule="nonzero"></path>
                            <path d="M57.4466801,41.0734406 L34.7112676,41.0734406 L11.9758551,41.0734406 C9.68229175,41.0734406 7.9527163,42.9639416 7.9527163,45.4708249 L7.9527163,60.0663984 L7.9527163,75.4104628 C7.9527163,77.3542938 9.83273843,79.0593561 11.9758551,79.0593561 L34.7112676,79.0593561 L57.4466801,79.0593561 C59.6650201,79.0593561 61.4698189,77.2545573 61.4698189,75.0362173 L61.4698189,60.0663984 L61.4698189,45.0965795 C61.4698189,42.8782394 59.6650201,41.0734406 57.4466801,41.0734406 Z M58.6629779,45.0965795 L58.6629779,58.6629779 L36.1146881,58.6629779 L36.1146881,43.8802817 L57.4466801,43.8802817 C58.117328,43.8802817 58.6629779,44.4259316 58.6629779,45.0965795 Z M10.7595573,45.4708249 C10.7595573,44.519493 11.2483219,43.8802817 11.9758551,43.8802817 L33.3078471,43.8802817 L33.3078471,58.6629779 L10.7595573,58.6629779 L10.7595573,45.4708249 Z M10.7595573,75.4104628 L10.7595573,61.4698189 L33.3078471,61.4698189 L33.3078471,76.2525151 L11.9758551,76.2525151 C11.2732093,76.2525151 10.7595573,75.6615815 10.7595573,75.4104628 Z M58.6629779,75.0362173 C58.6629779,75.7068652 58.117328,76.2525151 57.4466801,76.2525151 L36.1146881,76.2525151 L36.1146881,61.4698189 L58.6629779,61.4698189 L58.6629779,75.0362173 Z" id="Shape" fill="#F3F3F3" fill-rule="nonzero"></path>
                            <g id="Group" fill="#363562">
                                <path d="M28.0684105,70.2645875 L17.9637827,70.2645875 C17.1885332,70.2645875 16.5603622,69.6364165 16.5603622,68.861167 C16.5603622,68.0859175 17.1885332,67.4577465 17.9637827,67.4577465 L28.0684105,67.4577465 C28.84366,67.4577465 29.471831,68.0859175 29.471831,68.861167 C29.471831,69.6364165 28.84366,70.2645875 28.0684105,70.2645875 Z" id="Path"></path>
                                <path d="M27.1327968,49.8682093 L24.4195171,49.8682093 L24.4195171,47.1549296 C24.4195171,46.3796801 23.7913461,45.7515091 23.0160966,45.7515091 C22.2408471,45.7515091 21.6126761,46.3796801 21.6126761,47.1549296 L21.6126761,49.8682093 L18.8993964,49.8682093 C18.1241469,49.8682093 17.4959759,50.4963803 17.4959759,51.2716298 C17.4959759,52.0468793 18.1241469,52.6750503 18.8993964,52.6750503 L21.6126761,52.6750503 L21.6126761,55.38833 C21.6126761,56.1635795 22.2408471,56.7917505 23.0160966,56.7917505 C23.7913461,56.7917505 24.4195171,56.1635795 24.4195171,55.38833 L24.4195171,52.6750503 L27.1327968,52.6750503 C27.9080463,52.6750503 28.5362173,52.0468793 28.5362173,51.2716298 C28.5362173,50.4963803 27.9080463,49.8682093 27.1327968,49.8682093 Z" id="Path"></path>
                                <path d="M48.4848109,51.2716298 L50.4033803,49.3530604 C50.9514628,48.8047907 50.9514628,47.916332 50.4033803,47.3682495 C49.8551107,46.8203541 48.9666519,46.8203541 48.4185694,47.3682495 L46.5,49.2868189 L44.5814306,47.3682495 C44.033161,46.8203541 43.1447022,46.8203541 42.5966197,47.3682495 C42.0485372,47.9165191 42.0485372,48.8049779 42.5966197,49.3530604 L44.5151891,51.2716298 L42.5966197,53.1901992 C42.0485372,53.7384688 42.0485372,54.6269276 42.5966197,55.1750101 C42.8707545,55.4489577 43.2300302,55.5859316 43.5891187,55.5859316 C43.9482072,55.5859316 44.3074829,55.4489577 44.5816177,55.1750101 L46.5001871,53.2564406 L48.4187565,55.1750101 C48.6928913,55.4489577 49.052167,55.5859316 49.4112555,55.5859316 C49.7703441,55.5859316 50.1296197,55.4489577 50.4037545,55.1750101 C50.951837,54.6267404 50.951837,53.7382817 50.4037545,53.1901992 L48.4848109,51.2716298 Z" id="Path"></path>
                                <path d="M52.9557344,23.4839034 L50.3360161,23.4839034 C48.5304688,23.4839034 47.0613682,22.0148028 47.0613682,20.2092555 L47.0613682,14.7826962 C47.0613682,12.9771489 48.5304688,11.5080483 50.3360161,11.5080483 L52.9557344,11.5080483 C54.7612817,11.5080483 56.2303823,12.9771489 56.2303823,14.7826962 L56.2303823,20.2092555 C56.2303823,22.0148028 54.7612817,23.4839034 52.9557344,23.4839034 Z M50.3360161,14.3148893 C50.0779738,14.3148893 49.8682093,14.5246539 49.8682093,14.7826962 L49.8682093,20.2092555 C49.8682093,20.4672978 50.0779738,20.6770624 50.3360161,20.6770624 L52.9557344,20.6770624 C53.2137767,20.6770624 53.4235412,20.4672978 53.4235412,20.2092555 L53.4235412,14.7826962 C53.4235412,14.5246539 53.2137767,14.3148893 52.9557344,14.3148893 L50.3360161,14.3148893 Z" id="Shape"></path>
                                <path d="M65.8672032,34.9919517 L65.8672032,30.7816901 L6.54929577,30.7816901 C5.5158169,30.7816901 4.67806841,29.9439416 4.67806841,28.9104628 L4.67806841,4.49094567 C4.67806841,1.67474849 6.3528169,0 8.42052314,0 L3.74245473,0 C1.67474849,0 0,1.67474849 0,4.49094567 L0,30.7816901 L0,34.9919517 L0,82.1468813 C0,83.4660966 1.67474849,85.1408451 3.74245473,85.1408451 L8.42052314,85.1408451 C6.3528169,85.1408451 4.67806841,83.4660966 4.67806841,82.1468813 L4.67806841,36.8631791 C4.67806841,35.8297002 5.5158169,34.9919517 6.54929577,34.9919517 L65.8672032,34.9919517 Z" id="Path"></path>
                            </g>
                            <g id="Oval">
                                <use fill="black" fill-opacity="1" filter="url(#filter-2)" xlink:href="#path-1"></use>
                                <use fill="#FF6300" fill-rule="evenodd" xlink:href="#path-1"></use>
                            </g>
                            <g id="Path">
                                <use fill="black" fill-opacity="1" filter="url(#filter-4)" xlink:href="#path-3"></use>
                                <use fill="#FF6300" fill-rule="evenodd" xlink:href="#path-3"></use>
                            </g>
                            <g id="Path">
                                <use fill="black" fill-opacity="1" filter="url(#filter-6)" xlink:href="#path-5"></use>
                                <use fill="#F05F02" fill-rule="evenodd" xlink:href="#path-5"></use>
                            </g>
                            <g id="Path">
                                <use fill="black" fill-opacity="1" filter="url(#filter-8)" xlink:href="#path-7"></use>
                                <use fill="#FF6300" fill-rule="evenodd" xlink:href="#path-7"></use>
                            </g>
                            <g id="Path">
                                <use fill="black" fill-opacity="1" filter="url(#filter-10)" xlink:href="#path-9"></use>
                                <use fill="#F05F02" fill-rule="evenodd" xlink:href="#path-9"></use>
                            </g>
                            <path d="M43.3462334,73.472994 C42.9871449,73.472994 42.6278692,73.3360201 42.3537344,73.0620724 C41.8056519,72.5138028 41.8056519,71.6253441 42.3537344,71.0772616 L48.7159074,64.7150885 C49.2641771,64.1671932 50.1526358,64.1671932 50.7007183,64.7150885 C51.2488008,65.2633581 51.2488008,66.1518169 50.7007183,66.6998994 L44.3385453,73.0620724 C44.0645976,73.3360201 43.7053219,73.472994 43.3462334,73.472994 L43.3462334,73.472994 Z" id="Path" fill="#363562"></path>
                            <circle id="Oval" fill="#363562" cx="43.7867203" cy="65.305835" r="1.40342052"></circle>
                            <circle id="Oval" fill="#363562" cx="49.4004024" cy="72.416499" r="1.40342052"></circle>
                        </g>
                    </g>
                </g>
            </g>
        </g>
    </g>
</svg>