<svg width="109" height="124" xmlns="http://www.w3.org/2000/svg" xmlns:xlink="http://www.w3.org/1999/xlink">
    <defs>
        <filter x="-195.2%" y="-121.8%" width="490.4%" height="458.1%" filterUnits="objectBoundingBox" id="a">
            <feOffset dy="20" in="SourceAlpha" result="shadowOffsetOuter1"/>
            <feGaussianBlur stdDeviation="17.5" in="shadowOffsetOuter1" result="shadowBlurOuter1"/>
            <feColorMatrix values="0 0 0 0 1 0 0 0 0 0.388235294 0 0 0 0 0 0 0 0 0.15 0" in="shadowBlurOuter1"/>
        </filter>
        <path d="M48.727 57.329c-.115.816-.388 1.984-.632 2.934a1.997 1.997 0 0 1-1.93 1.508H43.38c-.91 0-1.703-.62-1.93-1.508-.244-.95-.517-2.118-.632-2.934a1.995 1.995 0 0 0-.976-1.447l-2.574-1.493a1.972 1.972 0 0 0-1.731-.126c-.762.309-1.91.657-2.854.92a1.988 1.988 0 0 1-2.26-.927l-1.39-2.42a2.013 2.013 0 0 1 .331-2.436c.698-.687 1.57-1.51 2.217-2.018.48-.377.758-.959.758-1.572v-2.983c0-.613-.277-1.195-.758-1.572-.647-.508-1.52-1.33-2.217-2.018a2.013 2.013 0 0 1-.332-2.436l1.391-2.42a1.988 1.988 0 0 1 2.26-.928c.943.264 2.092.612 2.854.921.565.23 1.203.18 1.731-.126l2.574-1.493c.529-.306.891-.839.976-1.447.115-.816.388-1.984.632-2.934a1.997 1.997 0 0 1 1.93-1.507h2.786c.91 0 1.703.62 1.93 1.507.244.95.517 2.118.632 2.934.085.608.447 1.14.976 1.447l2.574 1.493a1.972 1.972 0 0 0 1.731.126c.762-.309 1.911-.657 2.854-.92a1.988 1.988 0 0 1 2.26.927l1.39 2.42a2.013 2.013 0 0 1-.331 2.436c-.698.687-1.57 1.51-2.217 2.018-.48.377-.757.959-.757 1.572v2.983c0 .613.276 1.195.757 1.572.647.508 1.52 1.33 2.217 2.018.65.641.787 1.643.332 2.436l-1.391 2.42a1.988 1.988 0 0 1-2.26.928c-.943-.264-2.092-.612-2.854-.921a1.971 1.971 0 0 0-1.73.126l-2.575 1.493a1.994 1.994 0 0 0-.976 1.447zm2.905-13.01c0-3.806-3.072-6.891-6.86-6.891-3.789 0-6.86 3.085-6.86 6.89 0 3.806 3.071 6.891 6.86 6.891 3.788 0 6.86-3.085 6.86-6.89z" id="b"/>
    </defs>
    <g transform="translate(1)" fill="none" fill-rule="evenodd">
        <circle fill="#FFEBCB" cx="54" cy="54" r="54"/>
        <path d="m96.998 90.271-79.995.003c-2.278 0-4.126-1.859-4.126-4.152l-.002-54.301c0-2.293 1.848-4.152 4.127-4.152l79.994-.002c2.28 0 4.127 1.858 4.127 4.151l.002 54.302c0 2.293-1.848 4.151-4.127 4.151z" fill="#363562"/>
        <path d="M101.125 86.098c0 2.304-1.837 4.174-4.105 4.174h-6.157c2.268 0 4.105-1.87 4.105-4.174l-.002-54.257c0-2.302-1.83-4.168-4.095-4.174h6.147c2.268 0 4.105 1.868 4.105 4.174l.002 54.257z" fill="#363562"/>
        <path d="M94.968 83.2c0 .448-.357.811-.797.811h-5.36l-68.98.002a.804.804 0 0 1-.797-.81l-.002-48.463c0-.448.357-.81.797-.81l68.98-.003h5.36c.44 0 .797.363.797.81l.002 48.464z" fill="#F3F3F3" fill-rule="nonzero"/>
        <path d="M94.17 84.011h-5.36l-.001-50.084h5.36c.44 0 .797.363.797.81l.002 48.464c0 .447-.357.81-.797.81z" fill="#E4E4E4" fill-rule="nonzero"/>
        <path d="M102.661 100H11.338C8.39 100 6 97.595 6 94.63v-4.137c0-.456.368-.826.821-.826H107.18c.453 0 .821.37.821.826v4.136c0 2.966-2.39 5.371-5.339 5.371z" fill="#565495"/>
        <path d="M107.179 89.667h-6.157c.453 0 .821.37.821.826v4.133c0 2.968-2.39 5.374-5.336 5.374h6.157c2.947 0 5.336-2.406 5.336-5.373v-4.134a.824.824 0 0 0-.821-.826z" fill="#565495"/>
        <path d="M63.977 94.627H50.023a2.471 2.471 0 0 1-2.464-2.48v-2.48H66.44v2.48a2.471 2.471 0 0 1-2.463 2.48z" fill="#F3F3F3" fill-rule="nonzero"/>
        <path d="M78.864 37.462c-.114.816-.387 1.985-.63 2.935a1.997 1.997 0 0 1-1.931 1.507h-2.786c-.91 0-1.703-.62-1.93-1.507-.245-.95-.518-2.119-.632-2.935a1.995 1.995 0 0 0-.976-1.446l-2.574-1.493a1.972 1.972 0 0 0-1.731-.127c-.762.31-1.911.658-2.854.921a1.988 1.988 0 0 1-2.26-.928l-1.391-2.42a2.013 2.013 0 0 1 .332-2.435c.697-.688 1.57-1.51 2.217-2.018.48-.378.757-.96.757-1.573v-2.982c0-.614-.277-1.195-.757-1.573-.647-.507-1.52-1.33-2.217-2.018a2.013 2.013 0 0 1-.332-2.435l1.391-2.42a1.988 1.988 0 0 1 2.26-.928c.943.263 2.092.611 2.854.92.564.23 1.203.18 1.73-.126l2.575-1.493c.528-.306.891-.838.976-1.446.114-.816.387-1.985.631-2.935A1.997 1.997 0 0 1 73.516 7h2.787c.91 0 1.702.62 1.93 1.507.244.95.517 2.119.631 2.935.085.608.448 1.14.976 1.446l2.575 1.493a1.972 1.972 0 0 0 1.73.127c.763-.31 1.912-.658 2.855-.921a1.988 1.988 0 0 1 2.26.928l1.39 2.42a2.013 2.013 0 0 1-.331 2.435c-.698.688-1.57 1.51-2.217 2.018-.48.378-.758.96-.758 1.573v2.982c0 .614.277 1.195.758 1.573.647.507 1.519 1.33 2.217 2.018.65.64.787 1.642.331 2.435l-1.39 2.42a1.988 1.988 0 0 1-2.26.928c-.943-.263-2.092-.611-2.854-.92a1.971 1.971 0 0 0-1.731.126l-2.575 1.493a1.994 1.994 0 0 0-.976 1.446zm2.905-13.01c0-3.805-3.07-6.89-6.86-6.89-3.788 0-6.86 3.085-6.86 6.89 0 3.806 3.072 6.89 6.86 6.89 3.79 0 6.86-3.084 6.86-6.89z" fill="#FAC46C"/>
        <g transform="translate(6 7)">
            <use fill="#000" filter="url(#a)" xlink:href="#b"/>
            <use fill="#FF6300" xlink:href="#b"/>
        </g>
    </g>
</svg>
