<?xml version="1.0" encoding="UTF-8"?>
<svg width="108px" height="109px" viewBox="0 0 108 109" version="1.1" xmlns="http://www.w3.org/2000/svg" xmlns:xlink="http://www.w3.org/1999/xlink">
    <title>essay service</title>
    <defs>
        <polygon id="path-1" points="85.0959779 25.3560334 53.1618346 57.2901764 44.8366699 57.1633301 44.5829772 57.1633301 44.7098236 48.8381654 76.6439666 16.9040221"></polygon>
        <filter x="-30.9%" y="-21.0%" width="161.7%" height="161.9%" filterUnits="objectBoundingBox" id="filter-2">
            <feOffset dx="0" dy="4" in="SourceAlpha" result="shadowOffsetOuter1"></feOffset>
            <feGaussianBlur stdDeviation="3.5" in="shadowOffsetOuter1" result="shadowBlurOuter1"></feGaussianBlur>
            <feColorMatrix values="0 0 0 0 1   0 0 0 0 0.388235294   0 0 0 0 0  0 0 0 0.15 0" type="matrix" in="shadowBlurOuter1"></feColorMatrix>
        </filter>
        <polygon id="path-3" points="80.8695832 21.1304168 85.0959779 25.3560334 53.1618346 57.2901764 44.8366699 57.1633301"></polygon>
        <filter x="-31.0%" y="-23.5%" width="162.1%" height="169.1%" filterUnits="objectBoundingBox" id="filter-4">
            <feOffset dx="0" dy="4" in="SourceAlpha" result="shadowOffsetOuter1"></feOffset>
            <feGaussianBlur stdDeviation="3.5" in="shadowOffsetOuter1" result="shadowBlurOuter1"></feGaussianBlur>
            <feColorMatrix values="0 0 0 0 1   0 0 0 0 0.388235294   0 0 0 0 0  0 0 0 0.15 0" type="matrix" in="shadowBlurOuter1"></feColorMatrix>
        </filter>
        <polygon id="path-5" points="6.17578125 35.859375 12.1523437 35.859375 12.1523437 41.8359375 6.17578125 41.8359375"></polygon>
        <filter x="-209.2%" y="-142.2%" width="518.3%" height="518.3%" filterUnits="objectBoundingBox" id="filter-6">
            <feOffset dx="0" dy="4" in="SourceAlpha" result="shadowOffsetOuter1"></feOffset>
            <feGaussianBlur stdDeviation="3.5" in="shadowOffsetOuter1" result="shadowBlurOuter1"></feGaussianBlur>
            <feColorMatrix values="0 0 0 0 1   0 0 0 0 0.388235294   0 0 0 0 0  0 0 0 0.15 0" type="matrix" in="shadowBlurOuter1"></feColorMatrix>
        </filter>
        <polygon id="path-7" points="18.328125 35.859375 24.3046875 35.859375 24.3046875 41.8359375 18.328125 41.8359375"></polygon>
        <filter x="-209.2%" y="-142.2%" width="518.3%" height="518.3%" filterUnits="objectBoundingBox" id="filter-8">
            <feOffset dx="0" dy="4" in="SourceAlpha" result="shadowOffsetOuter1"></feOffset>
            <feGaussianBlur stdDeviation="3.5" in="shadowOffsetOuter1" result="shadowBlurOuter1"></feGaussianBlur>
            <feColorMatrix values="0 0 0 0 1   0 0 0 0 0.388235294   0 0 0 0 0  0 0 0 0.15 0" type="matrix" in="shadowBlurOuter1"></feColorMatrix>
        </filter>
        <polygon id="path-9" points="30.28125 35.859375 36.2578125 35.859375 36.2578125 41.8359375 30.28125 41.8359375"></polygon>
        <filter x="-209.2%" y="-142.2%" width="518.3%" height="518.3%" filterUnits="objectBoundingBox" id="filter-10">
            <feOffset dx="0" dy="4" in="SourceAlpha" result="shadowOffsetOuter1"></feOffset>
            <feGaussianBlur stdDeviation="3.5" in="shadowOffsetOuter1" result="shadowBlurOuter1"></feGaussianBlur>
            <feColorMatrix values="0 0 0 0 1   0 0 0 0 0.388235294   0 0 0 0 0  0 0 0 0.15 0" type="matrix" in="shadowBlurOuter1"></feColorMatrix>
        </filter>
    </defs>
    <g id="Page-1" stroke="none" stroke-width="1" fill="none" fill-rule="evenodd">
        <g id="essay-service">
            <circle id="Oval" fill="#FFEBCB" cx="54" cy="54" r="54"></circle>
            <g id="writing" transform="translate(6.000000, 7.000000)">
                <polygon id="Path" fill="#F3F3F3" fill-rule="nonzero" points="84.0703125 47.8125 84.0703125 102 0 102 0 47.8125 12.1523438 41.8359375 72.1171875 41.8359375"></polygon>
                <g id="Group" transform="translate(12.152344, 41.835938)">
                    <polygon id="Path" fill="#F3F3F3" fill-rule="nonzero" points="71.9179688 5.9765625 71.9179688 60.1640625 30.0820313 60.1640625 30.0820313 0 59.9648438 0"></polygon>
                    <polygon id="Path" fill="#363562" points="24.1054688 23.90625 0 23.90625 0 17.9296875 30.0820313 17.9296875"></polygon>
                    <polygon id="Path" fill="#363562" points="0 29.8828125 59.9648438 29.8828125 59.9648438 35.859375 0 35.859375"></polygon>
                    <polygon id="Path" fill="#363562" points="0 41.8359375 59.9648438 41.8359375 59.9648438 47.8125 0 47.8125"></polygon>
                </g>
                <polygon id="Path" fill="#363562" points="42.234375 71.71875 72.1171875 71.71875 72.1171875 77.6953125 42.234375 77.6953125"></polygon>
                <polygon id="Path" fill="#363562" points="42.234375 83.671875 72.1171875 83.671875 72.1171875 89.6484375 42.234375 89.6484375"></polygon>
                <polygon id="Path" fill="#363562" points="0 29.8828125 84.0703125 29.8828125 84.0703125 47.8125 0 47.8125"></polygon>
                <polygon id="Path" fill="#363562" points="42.234375 29.8828125 84.0703125 29.8828125 84.0703125 47.8125 42.234375 47.8125"></polygon>
                <polygon id="Path" fill="#FFEBCB" points="102 8.45278941 93.5472106 16.9040221 85.0959779 16.9040221 85.0959779 8.45278941 93.5472106 0"></polygon>
                <polygon id="Path" fill="#FFEBCB" points="102 8.45278941 93.5472106 16.9040221 85.0959779 16.9040221 97.7743834 4.22717285"></polygon>
                <polygon id="Path" fill="#363562" points="93.5479889 16.9040221 85.0959779 25.3560334 76.8968812 25.6097259 76.8968812 25.1031188 76.6439666 16.9040221 85.0959779 8.45201106"></polygon>
                <polygon id="Path" fill="#363562" points="93.5479889 16.9040221 85.0959779 25.3560334 76.8968812 25.6097259 76.8968812 25.1031188 89.3215942 12.6784058"></polygon>
                <g id="Path">
                    <use fill="black" fill-opacity="1" filter="url(#filter-2)" xlink:href="#path-1"></use>
                    <use fill="#FF6300" fill-rule="evenodd" xlink:href="#path-1"></use>
                </g>
                <g id="Path">
                    <use fill="black" fill-opacity="1" filter="url(#filter-4)" xlink:href="#path-3"></use>
                    <use fill="#FF6300" fill-rule="evenodd" xlink:href="#path-3"></use>
                </g>
                <polygon id="Path" fill="#FFCEBF" fill-rule="nonzero" points="53.1618346 57.2901764 36.2578125 65.7421875 44.7098236 48.8381654"></polygon>
                <polygon id="Path" fill="#FFB99C" fill-rule="nonzero" points="48.9362183 53.0637817 53.1618346 57.2901764 36.2578125 65.7421875"></polygon>
                <g id="Path">
                    <use fill="black" fill-opacity="1" filter="url(#filter-6)" xlink:href="#path-5"></use>
                    <use fill="#FF6300" fill-rule="evenodd" xlink:href="#path-5"></use>
                </g>
                <g id="Path">
                    <use fill="black" fill-opacity="1" filter="url(#filter-8)" xlink:href="#path-7"></use>
                    <use fill="#FF6300" fill-rule="evenodd" xlink:href="#path-7"></use>
                </g>
                <g id="Path">
                    <use fill="black" fill-opacity="1" filter="url(#filter-10)" xlink:href="#path-9"></use>
                    <use fill="#FF6300" fill-rule="evenodd" xlink:href="#path-9"></use>
                </g>
            </g>
        </g>
    </g>
</svg>