<?xml version="1.0" encoding="UTF-8"?>
<svg width="136px" height="155px" viewBox="0 0 136 155" version="1.1" xmlns="http://www.w3.org/2000/svg" xmlns:xlink="http://www.w3.org/1999/xlink">
    <title>E249EC8A-39F5-436B-9D68-94FEF5B71A2C</title>
    <defs>
        <path d="M68.4200273,54.6166113 L68.4200273,84.2936016 C68.4200273,89.103082 64.521293,93 59.7136289,93 L55.2692461,93 L55.2692461,45.9100312 L59.7136289,45.9100312 C64.5211113,45.9100312 68.4200273,49.8089473 68.4200273,54.6166113 Z" id="path-1"></path>
        <filter x="-475.3%" y="-90.3%" width="1050.5%" height="365.4%" filterUnits="objectBoundingBox" id="filter-2">
            <feOffset dx="0" dy="20" in="SourceAlpha" result="shadowOffsetOuter1"></feOffset>
            <feGaussianBlur stdDeviation="17.5" in="shadowOffsetOuter1" result="shadowBlurOuter1"></feGaussianBlur>
            <feColorMatrix values="0 0 0 0 1   0 0 0 0 0.388235294   0 0 0 0 0  0 0 0 0.15 0" type="matrix" in="shadowBlurOuter1"></feColorMatrix>
        </filter>
        <polygon id="path-3" points="49.0569551 36.7736895 36.6122109 22.4931035 24.1674668 36.7736895 29.4332285 36.7736895 29.4332285 73.3519336 43.7911934 73.3519336 43.7911934 36.7736895"></polygon>
        <filter x="-251.1%" y="-83.6%" width="602.2%" height="345.8%" filterUnits="objectBoundingBox" id="filter-4">
            <feOffset dx="0" dy="20" in="SourceAlpha" result="shadowOffsetOuter1"></feOffset>
            <feGaussianBlur stdDeviation="17.5" in="shadowOffsetOuter1" result="shadowBlurOuter1"></feGaussianBlur>
            <feColorMatrix values="0 0 0 0 1   0 0 0 0 0.388235294   0 0 0 0 0  0 0 0 0.15 0" type="matrix" in="shadowBlurOuter1"></feColorMatrix>
        </filter>
        <path d="M64.1091504,84.2939648 L64.1091504,54.6169746 C64.1091504,49.8087656 60.2113242,45.9109395 55.4031152,45.9109395 L11.9546777,45.9109395 C7.14646875,45.9109395 3.24864258,49.8087656 3.24864258,54.6169746 L3.24864258,84.2939648 C3.24864258,89.1021738 7.14646875,93 11.9546777,93 L55.4031152,93 C60.2113242,93 64.1091504,89.1021738 64.1091504,84.2939648 Z" id="path-5"></path>
        <filter x="-102.7%" y="-90.3%" width="305.4%" height="365.5%" filterUnits="objectBoundingBox" id="filter-6">
            <feOffset dx="0" dy="20" in="SourceAlpha" result="shadowOffsetOuter1"></feOffset>
            <feGaussianBlur stdDeviation="17.5" in="shadowOffsetOuter1" result="shadowBlurOuter1"></feGaussianBlur>
            <feColorMatrix values="0 0 0 0 1   0 0 0 0 0.388235294   0 0 0 0 0  0 0 0 0.15 0" type="matrix" in="shadowBlurOuter1"></feColorMatrix>
        </filter>
        <circle id="path-7" cx="33.6788965" cy="69.4555605" r="11.8990957"></circle>
        <filter x="-262.6%" y="-178.6%" width="625.2%" height="625.2%" filterUnits="objectBoundingBox" id="filter-8">
            <feOffset dx="0" dy="20" in="SourceAlpha" result="shadowOffsetOuter1"></feOffset>
            <feGaussianBlur stdDeviation="17.5" in="shadowOffsetOuter1" result="shadowBlurOuter1"></feGaussianBlur>
            <feColorMatrix values="0 0 0 0 1   0 0 0 0 0.388235294   0 0 0 0 0  0 0 0 0.15 0" type="matrix" in="shadowBlurOuter1"></feColorMatrix>
        </filter>
    </defs>
    <g id="Page-1" stroke="none" stroke-width="1" fill="none" fill-rule="evenodd">
        <g id="Home" transform="translate(-143.000000, -3718.000000)">
            <g id="courses" transform="translate(0.000000, 3090.000000)">
                <g id="Group-25-Copy-6" transform="translate(83.000000, 578.000000)">
                    <g id="Group-24" transform="translate(80.000000, 50.000000)">
                        <circle id="Oval" fill="#FFEBCB" cx="54" cy="54" r="54"></circle>
                        <g id="finances" transform="translate(12.000000, 7.000000)">
                            <polygon id="Path" fill="#363562" points="90.6183281 27.1073203 81.1339629 27.1073203 81.1339629 93 55.2690645 93 55.2690645 27.1073203 45.7828828 27.1073203 68.2006055 1.3824668"></polygon>
                            <g id="Path">
                                <use fill="black" fill-opacity="1" filter="url(#filter-2)" xlink:href="#path-1"></use>
                                <use fill="#F05F02" fill-rule="evenodd" xlink:href="#path-1"></use>
                            </g>
                            <g id="Path">
                                <use fill="black" fill-opacity="1" filter="url(#filter-4)" xlink:href="#path-3"></use>
                                <use fill="#FF6300" fill-rule="evenodd" xlink:href="#path-3"></use>
                            </g>
                            <polygon id="Path" fill="#363562" points="24.8894883 19.46025 12.4447441 0 0 19.46025 5.26576172 19.46025 5.26576172 56.0384941 19.6237266 56.0384941 19.6237266 19.46025"></polygon>
                            <g id="Path">
                                <use fill="black" fill-opacity="1" filter="url(#filter-6)" xlink:href="#path-5"></use>
                                <use fill="#FF6300" fill-rule="evenodd" xlink:href="#path-5"></use>
                            </g>
                            <path d="M58.9957852,80.6631504 L58.9957852,58.2477891 C55.0064121,58.2477891 51.7723008,55.0136777 51.7723008,51.0243047 L15.5854922,51.0243047 C15.5854922,55.0136777 12.3513809,58.2477891 8.36200781,58.2477891 L8.36200781,80.6631504 C12.3513809,80.6631504 15.5854922,83.8972617 15.5854922,87.8866348 L51.7721191,87.8866348 C51.7723008,83.8972617 55.0062305,80.6631504 58.9957852,80.6631504 Z" id="Path" fill="#F3F3F3" fill-rule="nonzero"></path>
                            <g id="Oval">
                                <use fill="black" fill-opacity="1" filter="url(#filter-8)" xlink:href="#path-7"></use>
                                <use fill="#FF6300" fill-rule="evenodd" xlink:href="#path-7"></use>
                            </g>
                            <path d="M35.328375,68.3259375 C35.1292969,68.2554609 34.9264043,68.1824414 34.7235117,68.1070605 L34.7235117,64.4902324 C35.1176719,64.6368164 35.3518066,64.8291738 35.3801426,64.8535137 C35.8362422,65.2643848 36.5391914,65.2325977 36.9564199,64.7801309 C37.376918,64.3243945 37.3482188,63.6141797 36.8924824,63.1936816 C36.8423496,63.1477266 36.0405879,62.4251602 34.7235117,62.1657773 L34.7235117,61.5318516 C34.7235117,60.9119121 34.2207305,60.4091309 33.600791,60.4091309 C32.9808516,60.4091309 32.4780703,60.9119121 32.4780703,61.5318516 L32.4780703,62.2442461 C32.405959,62.2629551 32.333666,62.2823906 32.2602832,62.3045508 C30.9219551,62.707793 29.9223867,63.8504941 29.6517422,65.2867266 C29.4036211,66.6043477 29.8312031,67.8792832 30.7677422,68.6138379 C31.2116719,68.962043 31.7531426,69.2811855 32.478252,69.6132246 L32.478252,74.409082 C31.9618477,74.3362441 31.5676875,74.1607793 30.9579199,73.7617148 C30.4391543,73.4222285 29.7429258,73.5679043 29.4038027,74.0866699 C29.0643164,74.6056172 29.2098105,75.3013008 29.7285762,75.6407871 C30.8040703,76.3442813 31.5620566,76.590041 32.4784336,76.6683281 L32.4784336,77.3790879 C32.4784336,77.9990273 32.9812148,78.5018086 33.6011543,78.5018086 C34.2210938,78.5018086 34.723875,77.9990273 34.723875,77.3790879 L34.723875,76.5615234 C36.6049453,76.087623 37.8104941,74.4821016 38.0765977,72.8992852 C38.4233496,70.8338496 37.3449492,69.038877 35.328375,68.3259375 L35.328375,68.3259375 Z M32.1534785,66.8470195 C31.8830156,66.6350449 31.7671289,66.1858477 31.8583125,65.702502 C31.9251563,65.3479395 32.1211465,64.9381582 32.4778887,64.671873 L32.4778887,67.074252 C32.3610938,66.9997793 32.2519277,66.9242168 32.1534785,66.8470195 L32.1534785,66.8470195 Z M35.8618535,72.5269219 C35.7575918,73.1472246 35.3712422,73.800041 34.7235117,74.1645938 L34.7235117,70.5014473 C35.9642988,71.0183965 35.9368711,72.0809941 35.8618535,72.5269219 L35.8618535,72.5269219 Z" id="Shape" fill="#F3F3F3" fill-rule="nonzero"></path>
                            <g id="Group" transform="translate(10.868648, 68.052205)" fill="#363562">
                                <path d="M43.0228535,2.80671094 L38.9704512,2.80671094 C38.195209,2.80671094 37.5670957,2.17841602 37.5670957,1.40335547 C37.5670957,0.628294922 38.1953906,0 38.9704512,0 L43.0228535,0 C43.7980957,0 44.426209,0.628294922 44.426209,1.40335547 C44.4263906,2.17841602 43.7980957,2.80671094 43.0228535,2.80671094 Z" id="Path"></path>
                                <path d="M5.45575781,2.80671094 L1.40335547,2.80671094 C0.628113281,2.80671094 0,2.17841602 0,1.40335547 C0,0.628294922 0.628294922,0 1.40335547,0 L5.45575781,0 C6.231,0 6.85911328,0.628294922 6.85911328,1.40335547 C6.85911328,2.17841602 6.23081836,2.80671094 5.45575781,2.80671094 Z" id="Path"></path>
                            </g>
                        </g>
                    </g>
                </g>
            </g>
        </g>
    </g>
</svg>