<svg width="32" height="31" xmlns="http://www.w3.org/2000/svg">
    <g fill-rule="nonzero" fill="none">
        <path d="m17.743 25.11-5.418 1.932-.205.718c-.292 1.022-1.4 1.858-2.462 1.858v.483h11.235l-3.15-4.99z" fill="#ADACA7"/>
        <path d="m19.88 27.76-.757-2.65L16 23.18l-3.123 1.93-.552 1.932h5.418l.205.718c.292 1.022 1.4 1.858 2.462 1.858l.966.483.966-.483c-1.062 0-2.17-.836-2.462-1.858z" fill="#8F8F8B"/>
        <path d="M28.137 25.11h1.931c1.063 0 1.932-.869 1.932-1.93v-3.864l-3.863-3.863v9.658z" fill="#ADACA7"/>
        <path d="M0 23.18c0 1.061.87 1.93 1.932 1.93h26.205c1.062 0 1.931-.869 1.931-1.93V11.59L0 19.316v3.863z" fill="#CBC9C2"/>
        <path d="M30.068 0h-1.931l1.931 19.316H32V1.932C32 .869 31.13 0 30.068 0z" fill="#404242"/>
        <path d="M30.068 1.932C30.068.869 29.2 0 28.137 0H1.932C.869 0 0 .87 0 1.932v17.384h30.068v-1.932L16 9.657l14.068-7.725z" fill="#565959"/>
        <path d="m30.068 1.931-1.93-.001L16 9.657l12.137 7.727 1.931-.001V1.931z" fill="#4B88D5"/>
        <path d="m28.137 1.931-26.2-.001c-.001 0-.003 15.454-.005 15.454l26.204-.001s-.002-15.451 0-15.452z" fill="#69A7FF"/>
        <circle fill="#FFF" cx="16" cy="22.213" r="1"/>
        <path d="M25.98 30.584H6.02a.483.483 0 1 1 0-.966h19.96a.483.483 0 1 1 0 .966z" fill="#8F8F8B"/>
    </g>
</svg>
