<svg width="82" height="70" xmlns="http://www.w3.org/2000/svg">
    <path d="M0 70c10.848 0 19.06-3.047 24.636-9.14C30.212 54.766 33 45.074 33 31.785V0H0v33.438h16.273c0 5.757-.5 10.182-1.5 13.275-1 3.092-2.621 5.297-4.864 6.614C7.667 54.643 4.364 55.486 0 55.853V70zm49 0c10.848 0 19.06-3.047 24.636-9.14C79.212 54.766 82 45.074 82 31.785V0H49v33.438h16.089c0 5.757-.457 10.182-1.372 13.275-.914 3.092-2.498 5.297-4.753 6.614-2.255 1.316-5.576 2.159-9.964 2.526V70z" fill="#FFEBCB" fill-rule="nonzero" opacity=".1"/>
</svg>
