<svg width="555" height="397" xmlns="http://www.w3.org/2000/svg" xmlns:xlink="http://www.w3.org/1999/xlink">
    <defs>
        <filter x="-32.3%" y="-16.8%" width="164.5%" height="149.4%" filterUnits="objectBoundingBox" id="b">
            <feOffset dy="20" in="SourceAlpha" result="shadowOffsetOuter1"/>
            <feGaussianBlur stdDeviation="17.5" in="shadowOffsetOuter1" result="shadowBlurOuter1"/>
            <feColorMatrix values="0 0 0 0 1 0 0 0 0 0.388235294 0 0 0 0 0 0 0 0 0.15 0" in="shadowBlurOuter1"/>
        </filter>
        <filter x="-118.3%" y="-28.8%" width="336.7%" height="184.7%" filterUnits="objectBoundingBox" id="d">
            <feOffset dy="20" in="SourceAlpha" result="shadowOffsetOuter1"/>
            <feGaussianBlur stdDeviation="17.5" in="shadowOffsetOuter1" result="shadowBlurOuter1"/>
            <feColorMatrix values="0 0 0 0 1 0 0 0 0 0.388235294 0 0 0 0 0 0 0 0 0.15 0" in="shadowBlurOuter1"/>
        </filter>
        <filter x="-63.3%" y="-131.6%" width="226.5%" height="487.2%" filterUnits="objectBoundingBox" id="f">
            <feOffset dy="20" in="SourceAlpha" result="shadowOffsetOuter1"/>
            <feGaussianBlur stdDeviation="17.5" in="shadowOffsetOuter1" result="shadowBlurOuter1"/>
            <feColorMatrix values="0 0 0 0 1 0 0 0 0 0.388235294 0 0 0 0 0 0 0 0 0.15 0" in="shadowBlurOuter1"/>
        </filter>
        <filter x="-87%" y="-56.5%" width="274.1%" height="266.3%" filterUnits="objectBoundingBox" id="h">
            <feOffset dy="20" in="SourceAlpha" result="shadowOffsetOuter1"/>
            <feGaussianBlur stdDeviation="17.5" in="shadowOffsetOuter1" result="shadowBlurOuter1"/>
            <feColorMatrix values="0 0 0 0 1 0 0 0 0 0.388235294 0 0 0 0 0 0 0 0 0.15 0" in="shadowBlurOuter1"/>
        </filter>
        <path d="M188.509 253.236H5.203A5.206 5.206 0 0 1 0 248.026V5.209A5.205 5.205 0 0 1 5.203 0h183.306a5.205 5.205 0 0 1 5.203 5.208v242.819c0 2.878-2.33 5.209-5.203 5.209" id="a"/>
        <path d="M193.712 205.775h-21.825a15.933 15.933 0 0 0-.886-3.49l-19.357-51.206 6.617-2.813-13.356-24.992a21.24 21.24 0 0 0-4.005-5.407l52.812-59.72v147.628" id="e"/>
        <path d="M292.026 39.518a.488.488 0 0 1-.859-.32l.03-9.47V10.794a3.388 3.388 0 0 1 3.386-3.39h92.008a3.387 3.387 0 0 1 3.386 3.39v20.241a3.388 3.388 0 0 1-3.386 3.39h-90.21l-4.355 5.094" id="g"/>
        <path d="M514.313 114.798H452.14a4.817 4.817 0 0 1-4.815-4.82V44.449a4.816 4.816 0 0 1 4.815-4.82h62.173a4.816 4.816 0 0 1 4.814 4.82v65.529a4.817 4.817 0 0 1-4.814 4.82" id="i"/>
    </defs>
    <g fill="none" fill-rule="evenodd">
        <path d="M486.903 330.947c0-113.251-91.699-205.058-204.813-205.058-113.115 0-204.813 91.807-204.813 205.058 0 22.592 3.66 44.328 10.402 64.657H476.5c6.742-20.33 10.402-42.065 10.402-64.657" fill="#FFEBCB"/>
        <path fill="#CBA389" d="M.612 397H545v-1.605H.612z"/>
        <path d="M433.746 288.557h-78.594c-5.361 0-9.215-5.253-7.696-10.492l37.532-129.53c1.007-3.475 4.14-5.86 7.697-5.86h78.594c5.36 0 9.215 5.25 7.696 10.49l-37.531 129.53c-1.008 3.475-4.14 5.862-7.698 5.862" fill="#2E2D2F"/>
        <path d="M422.932 288.557h-68.458c-5.362 0-9.215-5.253-7.698-10.492l37.533-129.53c1.007-3.475 4.14-5.86 7.697-5.86h68.458c5.362 0 9.214 5.25 7.697 10.49l-37.533 129.53c-1.006 3.475-4.14 5.862-7.696 5.862" fill="#EC9457"/>
        <path d="M409.757 288.557h-83.186c-3.88 0-7.025-3.15-7.025-7.034s3.145-7.033 7.025-7.033h83.186c3.879 0 7.025 3.149 7.025 7.033 0 3.884-3.146 7.034-7.025 7.034M351.485 389.765h71.508v-7.084h-71.508z" fill="#2E2D2F"/>
        <path d="M358.137 388.342a6.749 6.749 0 0 1-5.547 7.764 6.744 6.744 0 0 1-7.756-5.555 6.75 6.75 0 0 1 5.549-7.764 6.742 6.742 0 0 1 7.754 5.555M382.815 385.58h7.076v-98.12h-7.076zM429.645 388.342a6.75 6.75 0 0 1-5.549 7.764 6.744 6.744 0 0 1-7.755-5.555 6.75 6.75 0 0 1 5.549-7.764 6.744 6.744 0 0 1 7.755 5.555" fill="#2E2D2F"/>
        <path d="M431.534 288.557h-83.186c-3.88 0-7.025-3.15-7.025-7.034s3.145-7.033 7.025-7.033h83.186a7.029 7.029 0 0 1 7.026 7.033c0 3.884-3.145 7.034-7.026 7.034M347.499 117.203l-.287.037c.06.463.088.918.088 1.358 0 1.383-.285 2.62-.762 3.519-.48.901-1.13 1.441-1.862 1.535l-.235.015c-.809.005-1.666-.551-2.378-1.551-.71-.995-1.258-2.41-1.465-4.022-.059-.463-.088-.916-.088-1.357-.001-1.382.285-2.62.762-3.52.48-.9 1.129-1.442 1.861-1.535l.234-.015c.81-.004 1.667.55 2.38 1.552.71.996 1.258 2.411 1.465 4.021l.287-.037.287-.037c-.22-1.696-.792-3.193-1.568-4.284-.775-1.086-1.77-1.79-2.851-1.795a2.45 2.45 0 0 0-.307.02c-.98.128-1.77.837-2.299 1.84-.533 1.006-.83 2.328-.83 3.79 0 .465.031.945.094 1.432.219 1.695.791 3.192 1.567 4.284.774 1.085 1.769 1.79 2.85 1.793.102 0 .205-.006.308-.02.98-.127 1.769-.835 2.3-1.838.532-1.007.828-2.328.829-3.79 0-.466-.03-.944-.093-1.432l-.287.037" fill="#2E2D2F"/>
        <path fill="#2E2D2F" d="m347.469 115.793 10.783-2.934-.152-.559-10.783 2.934"/>
        <path d="M352.08 98.193s-17.945 6.641-5.457 36.047c1.522 3.583 6.116 4.67 9.283 2.411l12.891-9.191-16.716-29.267" fill="#FFC5AE"/>
        <path d="M356.333 128.813c.695.585 11.632 24.008 11.632 24.008l20.038-7.67-23.198-38.642-8.472 22.304M342.684 119.005c.009.448-.94 3.962-1.515 6.047a.89.89 0 0 0 1.107 1.092l3.968-1.154-3.56-5.985" fill="#FFC5AE"/>
        <path fill="#E4A78F" d="m359.18 134.317 5.625-4.566-.91 14.416-4.714-9.85"/>
        <path d="m364.032 117.404 9.75 4.527s15.61-13.762 4.459-26.073c-11.151-12.31-29.832 3.08-29.832 3.08l13.03 15.225 2.593 3.241M345.773 115.525a1.394 1.394 0 1 0 1.684 2.225 1.394 1.394 0 0 0-1.684-2.225M345.2 128.388l.066.003c.183 0 .712-.041 1.317-.443.605-.4 1.268-1.157 1.738-2.514a.36.36 0 1 0-.683-.239c-.434 1.242-.997 1.844-1.455 2.15-.46.305-.835.321-.917.321h-.014l-.004.095.008-.095h-.004l-.004.095.008-.095a.362.362 0 0 0-.055.722M345.624 109.488l.004-.003c.057-.056.755-.65 1.703-.644.403.001.857.099 1.366.394a.361.361 0 0 0 .364-.626c-.613-.357-1.206-.492-1.73-.492-1.331.007-2.173.82-2.205.845a.362.362 0 1 0 .498.526" fill="#2E2D2F"/>
        <path d="m349.79 116.608-.29.038c.06.464.088.917.088 1.357.001 1.383-.285 2.621-.761 3.519-.48.9-1.129 1.44-1.86 1.533l-.234.015c-.808.005-1.665-.55-2.377-1.55-.71-.995-1.258-2.41-1.465-4.02-.059-.463-.087-.917-.087-1.357-.001-1.382.285-2.62.761-3.518.48-.902 1.129-1.44 1.861-1.534l.233-.016c.808-.004 1.665.551 2.377 1.551.71.995 1.258 2.41 1.465 4.02l.289-.038.289-.036c-.22-1.697-.792-3.194-1.568-4.285-.775-1.087-1.77-1.793-2.852-1.796-.103 0-.205.007-.309.02-.981.128-1.77.837-2.3 1.84-.534 1.007-.83 2.33-.83 3.792 0 .465.03.945.093 1.432.22 1.695.792 3.193 1.568 4.285.775 1.086 1.77 1.791 2.852 1.794.103 0 .206-.006.31-.019.98-.127 1.77-.837 2.3-1.84.532-1.006.829-2.33.83-3.792 0-.465-.03-.944-.094-1.431l-.29.036" fill="#F9D8CD"/>
        <path fill="#F9D8CD" d="m349.734 115.207 10.926-1.896-.099-.577-10.928 1.897"/>
        <path d="M360.643 112.986a6.164 6.164 0 0 0 5.262 6.947 6.161 6.161 0 0 0 6.94-5.27 6.165 6.165 0 0 0-5.262-6.947 6.16 6.16 0 0 0-6.94 5.27" fill="#FFC5AE"/>
        <path d="m364.7 115.323.003-.032c.009-.181.09-1.086.526-1.9.218-.409.518-.792.934-1.073.418-.28.954-.47 1.687-.47.287 0 .605.03.956.097a.362.362 0 0 0 .135-.712 5.824 5.824 0 0 0-1.09-.109c-.919-.002-1.649.263-2.197.668-.825.608-1.234 1.492-1.446 2.208-.213.718-.229 1.282-.23 1.302a.362.362 0 1 0 .723.021M348.41 98.938s-6.596 4.89-6.776 9.914l12.814-8.035-6.039-1.879M404.057 87.048c-.63 7.612-7.306 13.27-14.91 12.638-7.604-.631-13.255-7.315-12.623-14.927.63-7.613 7.307-13.271 14.91-12.639 7.603.632 13.255 7.316 12.623 14.928" fill="#2E2D2F"/>
        <path fill="#EC9457" d="m375.59 93.252 4.163 4.844 2.024-1.442-4.031-4.922-2.155 1.52"/>
        <path d="m319.138 370.486-33.307 18.741s61.76.434 61.749-.13c-.012-.56-4.15-19.147-4.15-19.147l-24.292.536" fill="#2E2D2F"/>
        <path fill="#FFFFFE" d="m347.704 395.283-61.748.13-.125-6.186 61.749-.13.124 6.186"/>
        <path fill="#FFC5AE" d="m341.612 370.03-1.742-18.196-22.683-1.1 1.951 19.752 22.474-.456"/>
        <path fill="#B0B2AC" d="m292.39 259.49 16.791 97.232 38.556.496-10.449-61.566-44.898-36.162"/>
        <path d="m365.076 355.118-14.418 36.207s49.567-38.755 49.217-39.194c-.35-.44-15.728-11.93-15.728-11.93l-19.07 14.917" fill="#2E2D2F"/>
        <path fill="#FFFFFE" d="m403.722 356.97-49.218 39.196-3.846-4.84 49.217-39.195 3.847 4.84"/>
        <path fill="#FFC5AE" d="m382.75 341.367-10.666-14.739-20.268 12.045 13.26 16.445 17.674-13.751"/>
        <path d="m419.156 233.29-1.2.053.776-5.426h-39.284l-1.206 7.161-76.119 3.326s-22.86 1.026-22.372 23.279c.147 6.753 2.6 13.254 6.625 18.673l59.876 71.295 34.218-24.457-45.373-52.056 58.896-.253c21.839-.11 29.493-20.164 25.163-41.595" fill="#FFFFFE"/>
        <path d="M335.689 274.68c-.06-.078-7.215-9.306-22.696-13.591l-.398 1.444c7.527 2.082 13.017 5.364 16.621 8.12a37.272 37.272 0 0 1 4.008 3.52 24.057 24.057 0 0 1 1.21 1.335l.057.07.014.017 1.184-.915M378.242 235.827h25.008v-1.497h-25.008z" fill="#B0B2AC"/>
        <path d="m322.162 210.023 51.316-60.648 25.738 21.53-53.303 59.528c-6.284 7.137-17.42 7.066-23.613-.153a15.684 15.684 0 0 1-.138-20.257" fill="#2E5E7D"/>
        <path fill="#FFC5AE" d="m308.796 165.514 8.066 10.964-17.165 11.732-16.831-17.837 23.708-9.319 2.222 4.46"/>
        <path d="m307.607 168.503-.445-3.736 1.634.747-5.135-10.304c-.424-.85-1.008-1.63-1.785-2.178-1.294-.913-2.402-.874-3.4-.837-.38.014-.745.03-1.096-.008-2.141-.23-1.478.411-1.511 2.567-2.238.035-6.854 1.04-9.393-8.856-.543-2.116-2.734-3.413-4.852-2.884-1.402.35-1.126.263-.385.177.952-.111 2.668-.223 2.581.59l-.004.183a3.177 3.177 0 0 0-2.938-.766 3.19 3.19 0 0 0-2.398 2.754c-.018.17-.019.343-.01.518a3.147 3.147 0 0 0-1.575-.025 3.188 3.188 0 0 0-2.32 3.863c.033.135.072.257.107.389l-.17.024c-1.334.332-1.398.932-1.538 2.225-.038.363-.015.736.078 1.11.697 2.804 1.39 3.928 2.432 6.028h-.005l.05.096a22.677 22.677 0 0 0 1.602 2.713c3.23 5.16 11.339 15.263 20.56 17.543 12.269 3.032 9.916-11.933 9.916-11.933" fill="#FFC5AE"/>
        <path d="m268.022 138.461.06 1.844c.016.58.224 1.135.594 1.581l23.06 27.707c.654.789 1.91 1.803 2.935 1.778l10.117-.256c1.108-.027 2.312-1.08 2.823-2.44l-30.366-29.217-9.223-.997" fill="#110F1A"/>
        <path d="m268.278 139.164 25.21 29.62c.51.6 1.261.94 2.049.932l11.002-.13c.85-.01 1.3-1.008.746-1.654l-25.16-29.305a3.553 3.553 0 0 0-2.732-1.237l-10.365.122c-.848.01-1.3 1.005-.75 1.652" fill="#19162B"/>
        <path d="m272.74 140.177 22.855 26.853c.362.427.896.67 1.457.663l6.26-.073a.89.89 0 0 0 .664-1.47l-22.343-26.025a3.149 3.149 0 0 0-2.428-1.098l-5.974.07a.655.655 0 0 0-.49 1.08" fill="#F0E8DA"/>
        <path d="m299.772 152.218-5.564-.852c-2.34-.358-4.184 1.962-3.31 4.164.281.708.816 1.287 1.501 1.622l10.006 4.902-1.477-6.455-1.156-3.38" fill="#FFC5AE"/>
        <path d="m321.76 229.65-31.783-41.107 26.54-20.532 30.261 42.809c5.611 7.68 3.144 18.553-5.23 23.054v.001c-6.74 3.624-15.11 1.836-19.789-4.225M363.863 156.334l-2.617-6.049 23.713-15.657 5.925 12.738-27.021 8.968" fill="#2E5E7D"/>
        <path d="M364.494 153.926c-5.625 2.408-10.772 16.818-10.83 26.03-.105 16.763 10.58 19.105 10.58 19.105l15.204 28.856h39.284l-6.995-65.433c-2.225-14.29-22.933-19.59-22.933-19.59l-24.31 11.032" fill="#30668B"/>
        <path d="M392.739 271.649a4.105 4.105 0 0 0 .16 4.811 4.094 4.094 0 0 0 6.034.481l1.442-1.35c1.784 1.793 3.76 5.909-2.46 15.843a3.572 3.572 0 0 0 1.128 4.922 3.565 3.565 0 0 0 4.081-.204l.15-.138a3.561 3.561 0 0 0 5.749 2.762c.15-.117.29-.251.425-.395.281.508.677.961 1.204 1.292a3.565 3.565 0 0 0 4.914-1.13c.083-.13.151-.258.231-.389l.152.12a3.563 3.563 0 0 0 4.915-1.13c1.717-2.743 3.003-5.36 3.883-7.834l.005.005.037-.117c.41-1.168.718-2.3.94-3.401 1.29-5.178 3.179-15.155 1.393-23.668l-26.896-1.573-7.487 11.093" fill="#FFC5AE"/>
        <path d="m439.768 215.488-9.3 51.143-32.992-6.044 11.58-51.147c1.958-9.312 11.684-14.742 20.625-11.515 7.198 2.6 11.464 10.027 10.087 17.563" fill="#30668B"/>
        <path d="m410.432 220.106-28.476-56.229c-4.108-8.115-.907-18.028 7.17-22.198 8.317-4.292 18.531-.826 22.526 7.644l26.787 56.792c4.13 8.57-.259 18.818-9.307 21.728-7.283 2.344-15.193-.927-18.7-7.737" fill="#30668B"/>
        <path fill="#2E5E7D" d="m384.701 171.095 21.796 43.039-2.335 13.244 1.6.283 2.43-13.779-22.041-43.523-1.45.736"/>
        <path d="M.612 35.37h193.711a.61.61 0 0 0 0-1.22H.612a.61.61 0 1 0 0 1.22" fill="#FAF7E7"/>
        <path d="M189.12 275.496v-.611H5.813a4.572 4.572 0 0 1-3.247-1.347 4.588 4.588 0 0 1-1.346-3.251V13.82a4.584 4.584 0 0 1 1.346-3.251 4.568 4.568 0 0 1 3.247-1.347H189.12c1.27 0 2.415.513 3.248 1.347a4.579 4.579 0 0 1 1.345 3.251v256.467a4.582 4.582 0 0 1-1.345 3.251 4.572 4.572 0 0 1-3.248 1.347v1.222a5.816 5.816 0 0 0 5.814-5.82V13.82A5.816 5.816 0 0 0 189.119 8H5.814A5.818 5.818 0 0 0 0 13.82v256.467a5.818 5.818 0 0 0 5.814 5.82H189.12v-.61" fill="#FAF7E7"/>
        <path d="M26.11 21.953h-.61a3.04 3.04 0 0 1-3.035 3.037 3.04 3.04 0 0 1-3.034-3.037 3.041 3.041 0 0 1 3.034-3.04 3.041 3.041 0 0 1 3.034 3.04h1.221a4.259 4.259 0 0 0-4.255-4.262 4.26 4.26 0 0 0-4.255 4.262 4.26 4.26 0 0 0 4.255 4.26 4.258 4.258 0 0 0 4.255-4.26h-.61M40.273 21.953h-.61a3.04 3.04 0 0 1-3.034 3.037 3.04 3.04 0 0 1-3.034-3.037 3.041 3.041 0 0 1 3.034-3.04 3.041 3.041 0 0 1 3.034 3.04h1.22a4.259 4.259 0 0 0-4.254-4.262 4.26 4.26 0 0 0-4.255 4.262 4.26 4.26 0 0 0 4.255 4.26 4.26 4.26 0 0 0 4.254-4.26h-.61M54.437 21.953h-.61a3.04 3.04 0 0 1-3.035 3.037 3.04 3.04 0 0 1-3.034-3.037 3.041 3.041 0 0 1 3.034-3.04 3.04 3.04 0 0 1 3.034 3.04h1.221a4.259 4.259 0 0 0-4.255-4.262 4.258 4.258 0 0 0-4.254 4.262 4.258 4.258 0 0 0 4.254 4.26 4.258 4.258 0 0 0 4.255-4.26h-.61" fill="#FAF7E7"/>
        <path d="M226.639 304.79H43.333a5.206 5.206 0 0 1-5.203-5.208V56.763a5.205 5.205 0 0 1 5.203-5.208h183.306a5.205 5.205 0 0 1 5.203 5.208v242.819c0 2.878-2.33 5.209-5.203 5.209" fill="#8D83B1"/>
        <g transform="translate(38.13 51.555)">
            <mask id="c" fill="#fff">
                <use xlink:href="#a"/>
            </mask>
            <use fill="#000" filter="url(#b)" xlink:href="#a"/>
            <use fill="#FF6300" xlink:href="#a"/>
            <path d="m109.854 152.183 30.994 62.346c3.462 6.965 11.49 10.596 19.107 8.639 9.282-2.385 14.39-12.038 11.046-20.883l-24.449-64.675-36.698 14.573" fill="#E36A6C" mask="url(#c)"/>
            <path d="m104.832 140.103 8.757 27.156 44.672-18.993-13.356-24.992c-4.437-8.492-13.417-12.584-24.876-12.26l1.579.915c-12.937 2.402-20.819 15.638-16.776 28.174" fill="#FFFFFE" mask="url(#c)"/>
            <path d="m120.029 111.014-61.278-.018c-9.034 0-1.536 6.845-2.484 15.839L46.81 251.168l100.094-8.263-9.287-115.762c-.802-9.128-8.438-16.129-17.59-16.129" fill="#FFFFFE" mask="url(#c)"/>
            <path fill="#B0B2AC" mask="url(#c)" d="m140.684 155.996-1.595-19.884-1.492.12 1.595 19.884 1.492-.12"/>
            <path d="m30.58 136.965-15.957 67.784c-1.783 7.573 2.075 15.501 9.182 18.87 8.661 4.105 18.751-.054 21.825-8.995l22.48-65.388-37.53-12.271" fill="#FFC5AE" mask="url(#c)"/>
            <path d="m34.43 124.46-10.6 26.489 47.182 9.467 4.983-23.26c2.006-9.37-2.325-18.955-10.68-23.632-11.481-6.43-25.993-1.292-30.886 10.936" fill="#FFFFFE" mask="url(#c)"/>
            <path fill="#B0B2AC" mask="url(#c)" d="m65.41 159.387 6.665-20.024-1.42-.473-6.664 20.024"/>
            <path d="M116.229 68.69c-.168 4.881 3.647 8.975 8.523 9.143 4.875.169 8.964-3.65 9.132-8.533.169-4.88-3.647-8.974-8.522-9.144-4.876-.168-8.965 3.652-9.133 8.534M114.28 82.38l-.635 31.522c-.234 8.862-6.33 9.317-15.039 9.015-7.435-.257-13.724-2.657-14.39-10.077l-.464-34.105 30.529 3.645" fill="#FFC5AE" mask="url(#c)"/>
            <path fill="#E4A78F" mask="url(#c)" d="M113.778 107.943 90.742 89.392l23.414.525-.378 18.026"/>
            <path d="m99.145 94.446 12.345.427c9.269.32 16.96-7.106 16.976-16.393l.043-22.79c.02-11.64-9.186-21.195-20.803-21.596-11.892-.412-23.951 8.835-24.361 20.742l.407 23.899c.13 8.507 6.9 15.418 15.393 15.711" fill="#FFC5AE" mask="url(#c)"/>
            <path d="M91.29 35.085c-5.662 4.607-13.39 6.858-14.41 15.6-1.013 8.67 2.13 21.003 9.217 17.245 0 0 12.92.694 8.404-16.637 0 0 3.604-6.374 15.043-3.315M117.638 76.507h-.019l-2.831-.098a.575.575 0 0 1-.555-.594c.012-.316.298-.533.594-.555l2.195.076-.28-3.996a.572.572 0 0 1 .532-.612.589.589 0 0 1 .61.532l.326 4.633a.57.57 0 0 1-.572.614M120.781 67.866a1.848 1.848 0 1 0 3.694.129 1.848 1.848 0 1 0-3.694-.129M105.849 67.35a1.849 1.849 0 1 0 3.695.13 1.849 1.849 0 0 0-3.695-.13M106.725 56.382s4.787-.556 4.811 2.002c0 0-.02 1.735-4.197 2.113-4.177.379-5.258-.013-5.623-1.639-.366-1.625 2.765-2.441 5.009-2.476M123.921 56.836s-3.944-.502-4.288 1.904c0 0-.204 1.63 3.248 1.968 3.454.338 4.584-.248 4.924-1.566.384-1.492-2.008-2.283-3.884-2.306" fill="#2E2D2F" mask="url(#c)"/>
            <path d="M119.766 79.11h-12.825s.733 5.478 7.964 4.594c4.858-.594 4.861-4.594 4.861-4.594" fill="#FFFFFE" mask="url(#c)"/>
            <path d="m117.775 110.996-39.882.005s2.592 17.808 27.385 16.357c3.234-.19 6.478-.779 9.388-2.201 4.495-2.2 8.633-6.269 3.11-14.161" fill="#FFC5AE" mask="url(#c)"/>
            <path d="M76.407 61.676s-4.37-27.594 16.867-34.648c21.237-7.054 36.61 8.713 37.576 20.954 0 0-17.666-11.94-54.443 13.694" fill="#EC9457" mask="url(#c)"/>
            <path d="M76.407 61.676s37.489-25.08 62.973-24.873c0 0 10.232.83 3.089 7.054-7.143 6.225-14.565 6.702-14.565 6.702s-3.428-5.48-21.293-.937c-16.47 4.187-30.204 12.054-30.204 12.054M80.46 74.06l3.392 12.058 2.156-14.364-5.548 2.306" fill="#2E2D2F" mask="url(#c)"/>
            <path d="M72.254 67.626c-.168 4.88 3.648 8.974 8.523 9.144 4.875.167 8.965-3.652 9.133-8.534.168-4.881-3.648-8.975-8.523-9.143-4.876-.17-8.965 3.65-9.133 8.533" fill="#FFC5AE" mask="url(#c)"/>
            <path d="M84.076 71.239h-.018a.574.574 0 0 1-.556-.592c.001-.026.065-2.673-1.532-4.123-.887-.804-2.149-1.102-3.754-.9a.574.574 0 0 1-.147-1.14c1.956-.25 3.53.148 4.678 1.195 1.99 1.812 1.907 4.877 1.903 5.006a.573.573 0 0 1-.574.554M0 253.236h193.712v-47.46H0z" fill="#2E2D2F" mask="url(#c)"/>
            <path d="M116.442 228.904c0 8.41-6.809 15.227-15.208 15.227-8.4 0-15.209-6.817-15.209-15.227s6.809-15.227 15.209-15.227c8.4 0 15.208 6.817 15.208 15.227" fill="#DE4957" mask="url(#c)"/>
            <path fill="#FFFFFE" mask="url(#c)" d="m95.923 224.458 9.77 9.783 1.16-1.162-9.77-9.783-1.16 1.162"/>
            <path fill="#FFFFFE" mask="url(#c)" d="m105.692 223.296-9.769 9.783 1.16 1.162 9.77-9.783-1.16-1.162"/>
            <g mask="url(#c)">
                <use fill="#000" filter="url(#d)" xlink:href="#e"/>
                <use fill="#EF5F04" xlink:href="#e"/>
            </g>
            <path d="M171.887 205.775h-27.961l-3.989-49.719h.002l.745-.06-.02-.248 10.98-4.669 19.357 51.206c.436 1.155.729 2.325.886 3.49" fill="#FFC5AE" mask="url(#c)"/>
            <path d="m140.663 155.748-1.574-19.636-.747.06-.724-9.03a17.631 17.631 0 0 0-.98-4.457l4.262-4.818a21.24 21.24 0 0 1 4.005 5.407l13.356 24.992-17.598 7.482" fill="#FFFFFE" mask="url(#c)"/>
            <path d="M143.926 205.775H63.158l73.48-83.09c.508 1.407.844 2.902.98 4.458l.724 9.03-.745.059 1.595 19.884.745-.06 3.989 49.72" fill="#FFFFFE" mask="url(#c)"/>
            <path fill="#B4B5B0" mask="url(#c)" d="m139.192 156.116-1.595-19.884.745-.06.747-.06 1.574 19.636.02.248-.744.06h-.002l-.745.06"/>
            <path d="M188.509 253.236H21.186l41.972-47.46h130.554v42.25c0 2.879-2.33 5.21-5.203 5.21m-87.275-39.559c-8.4 0-15.209 6.817-15.209 15.227s6.809 15.227 15.209 15.227c8.4 0 15.208-6.817 15.208-15.227s-6.809-15.227-15.208-15.227" fill="#3C3B3D" mask="url(#c)"/>
            <path d="M101.234 244.13c-8.4 0-15.209-6.816-15.209-15.226s6.809-15.227 15.209-15.227c8.4 0 15.208 6.817 15.208 15.227s-6.809 15.227-15.208 15.227m.154-14.2 4.304 4.31 1.161-1.162-4.305-4.31 4.305-4.31-1.16-1.163-4.305 4.31-4.305-4.31-1.16 1.162 4.304 4.311-4.304 4.31 1.16 1.162 4.305-4.31" fill="#DF525E" mask="url(#c)"/>
            <path d="m105.692 234.24-4.304-4.31 1.16-1.161 4.305 4.31-1.16 1.162m-5.466-5.472-4.304-4.31 1.16-1.163 4.305 4.31-1.16 1.163" fill="#FFFFFE" mask="url(#c)"/>
            <path fill="#FFFFFE" mask="url(#c)" d="m97.083 234.24-1.16-1.161 4.304-4.31 1.161-1.163 4.304-4.31 1.161 1.162-9.77 9.783"/>
        </g>
        <g transform="translate(0 8)">
            <use fill="#000" filter="url(#f)" xlink:href="#g"/>
            <use fill="#FF6300" xlink:href="#g"/>
        </g>
        <path fill="#FAF7E7" d="M305.688 25.77h70.5v-1.223h-70.5zM305.688 33.794h29.093v-1.222h-29.093z"/>
        <g transform="translate(0 8)">
            <use fill="#000" filter="url(#h)" xlink:href="#i"/>
            <use fill="#FF6300" xlink:href="#i"/>
        </g>
        <path d="M488.393 97.959h-20.19a3.27 3.27 0 0 1-3.268-3.273V77.24a3.27 3.27 0 0 1 3.269-3.273h20.19a3.271 3.271 0 0 1 3.268 3.273v17.446a3.271 3.271 0 0 1-3.269 3.273M494.112 81.782v7.273c0 .394.215.755.56.942l8.555 4.608a1.068 1.068 0 0 0 1.574-.942V78.376c0-.756-.76-1.272-1.462-.994l-8.554 3.406a1.07 1.07 0 0 0-.673.994" fill="#FEFCFB"/>
    </g>
</svg>
