<svg width="155" height="156" viewBox="0 0 155 156" xmlns="http://www.w3.org/2000/svg" xmlns:xlink="http://www.w3.org/1999/xlink">
    <defs>
        <ellipse id="b" cx="42.5" cy="42.857" rx="42.5" ry="42.857"/>
        <filter x="-73.5%" y="-49.6%" width="247.1%" height="245.8%" filterUnits="objectBoundingBox" id="a">
            <feOffset dy="20" in="SourceAlpha" result="shadowOffsetOuter1"/>
            <feGaussianBlur stdDeviation="17.5" in="shadowOffsetOuter1" result="shadowBlurOuter1"/>
            <feColorMatrix values="0 0 0 0 1 0 0 0 0 0.388235294 0 0 0 0 0 0 0 0 0.15 0" in="shadowBlurOuter1"/>
        </filter>
    </defs>
    <g fill="none" fill-rule="evenodd">
        <g opacity=".1" transform="translate(35 15)">
            <use fill="#000" filter="url(#a)" xlink:href="#b"/>
            <use fill="#363562" xlink:href="#b"/>
        </g>
        <g fill="#363562" fill-rule="nonzero">
            <path d="M92.77 103.608h-3.773V98H71.79v5.608h-4.56c-.679 0-1.229.536-1.229 1.196 0 .66.55 1.196 1.23 1.196h25.54c.68 0 1.23-.535 1.23-1.196 0-.66-.55-1.196-1.23-1.196zM51 66h39V43H51v23zm14.175-15.246c.006-.787.44-1.51 1.138-1.893a2.244 2.244 0 0 1 2.23.041l6.228 3.788a2.156 2.156 0 0 1 1.05 1.846c0 .754-.398 1.453-1.05 1.846l-6.24 3.775a2.204 2.204 0 0 1-1.15.323c-.376 0-.744-.1-1.067-.287a2.146 2.146 0 0 1-1.139-1.888v-7.55z"/>
            <path d="M67 51v7l6-3.494zM100 43h9v7h-9zM100 58h9v7h-9zM100 74h9v7h-9zM45 91.272c.013 1.508.965 2.86 2.412 3.425.47.203.98.306 1.495.303h62.186c.515.003 1.025-.1 1.495-.303 1.447-.565 2.4-1.917 2.412-3.425V89H45v2.272z"/>
            <path d="M111.15 37h-62.3C46.724 37 45 38.738 45 40.882V87h70V40.882c0-2.144-1.724-3.882-3.85-3.882zM91.091 83.35H49.828a1.212 1.212 0 0 1-1.207-1.217c0-.672.54-1.217 1.207-1.217H91.09c.667 0 1.207.545 1.207 1.217s-.54 1.216-1.207 1.216zm-42.47-8.421c0-.672.54-1.217 1.207-1.217h28.736c.666 0 1.207.545 1.207 1.217s-.54 1.217-1.207 1.217H49.828a1.212 1.212 0 0 1-1.207-1.217zm43.677-7.204c0 .672-.54 1.217-1.207 1.217H49.828a1.212 1.212 0 0 1-1.207-1.217V41.867c0-.672.54-1.216 1.207-1.216H91.09c.667 0 1.207.544 1.207 1.216v25.858zm19.081 14.408c0 .672-.54 1.216-1.207 1.216H98.66a1.212 1.212 0 0 1-1.207-1.216v-9.248c0-.672.54-1.217 1.207-1.217h11.513c.667 0 1.207.545 1.207 1.217v9.248zm0-15.527c0 .672-.54 1.217-1.207 1.217H98.66a1.212 1.212 0 0 1-1.207-1.217v-9.224c0-.672.54-1.217 1.207-1.217h11.513c.667 0 1.207.545 1.207 1.217v9.224zm0-15.527c0 .323-.127.632-.353.86a1.202 1.202 0 0 1-.854.357H98.66a1.212 1.212 0 0 1-1.207-1.217v-9.212c0-.672.54-1.216 1.207-1.216h11.513c.667 0 1.207.544 1.207 1.216v9.212z"/>
        </g>
    </g>
</svg>
