<svg width="166" height="48" xmlns="http://www.w3.org/2000/svg">
    <g fill-rule="nonzero" fill="none">
        <path d="M47.845 38.316c1.03.595 2.2.906 3.39.902 1.188 0 2.272-.552 2.272-1.673 0-.82-.626-1.339-1.94-2.029-1.522-.813-2.972-1.943-2.972-3.805 0-2.903 2.531-4.661 5.653-4.661 1.75 0 2.779.374 3.4.705l-.977 2.559a5.697 5.697 0 0 0-2.669-.627c-1.437 0-2.187.715-2.189 1.5 0 .836.883 1.352 2.1 2.028 1.745.902 2.844 2.076 2.844 3.798 0 3.197-2.647 4.844-5.843 4.844-1.995 0-3.43-.534-4.105-1.027l1.036-2.514zM68.926 41.247c-.762.34-2.057.622-3.784.622-3.804 0-6.347-2.322-6.347-6.1 0-3.24 1.441-5.741 3.626-7.213 1.493-1.026 3.241-1.515 5.266-1.515 1.56 0 2.727.354 3.153.597l-.838 2.496a6.704 6.704 0 0 0-2.603-.451 5.137 5.137 0 0 0-3.295 1.118c-1.2.987-1.982 2.615-1.982 4.619 0 2.297 1.297 3.832 3.817 3.832a7.184 7.184 0 0 0 2.73-.48l.257 2.475zM84.574 33.037c0 2.606-.914 5.162-2.567 6.78-1.34 1.303-3.153 2.06-5.3 2.06-3.723 0-5.826-2.648-5.826-5.989 0-2.592.961-5.184 2.653-6.803a7.501 7.501 0 0 1 5.239-2.046c3.8 0 5.801 2.558 5.801 5.998zm-8.633-2.356c-1.144 1.143-1.801 3.366-1.801 5.104 0 2.028.9 3.532 3.009 3.532a3.377 3.377 0 0 0 2.396-1.05c1.126-1.128 1.752-3.479 1.752-5.144 0-1.804-.646-3.524-2.898-3.524a3.45 3.45 0 0 0-2.458 1.082zM88.203 27.541a17.8 17.8 0 0 1 3.842-.365c1.351 0 2.773.196 3.775.83a3.134 3.134 0 0 1 1.576 2.804c0 2.13-1.412 3.458-3.25 4.057l-.01.072c.853.377 1.229 1.324 1.369 2.622.177 1.614.295 3.487.545 4.08h-3.154c-.112-.38-.265-1.62-.405-3.381-.14-1.76-.727-2.277-1.944-2.277h-.934L88.54 41.65h-3.027l2.689-14.109zm1.87 6.138h1.26c1.667 0 2.883-1.007 2.883-2.41 0-1.16-.97-1.679-2.196-1.679a5.448 5.448 0 0 0-1.196.104l-.752 3.985zM107.466 35.553h-5.099l-.664 3.473h5.734l-.498 2.617h-8.804l2.72-14.37h8.499l-.51 2.615h-5.405l-.597 3.075h5.12z" fill="#363562"/>
        <path d="m121.358 41.643.876-5.935c.239-1.55.554-3.528.96-5.608h-.059a126.25 126.25 0 0 1-2.477 5.423l-2.928 5.886h-2.399l-.511-5.825a140.89 140.89 0 0 1-.315-5.484h-.043c-.415 1.907-.84 4.057-1.205 5.61l-1.406 5.933h-2.83l3.603-14.37h4.103l.45 5.466c.082 1.353.24 2.971.242 4.57h.083c.575-1.599 1.334-3.283 1.948-4.576l2.663-5.46h4.157l-1.943 14.37h-2.969zM141.22 33.037c0 2.606-.916 5.162-2.567 6.78-1.351 1.303-3.153 2.06-5.302 2.06-3.72 0-5.824-2.648-5.824-5.989 0-2.592.96-5.184 2.65-6.803a7.51 7.51 0 0 1 5.24-2.046c3.79 0 5.804 2.558 5.804 5.998zm-8.634-2.356c-1.142 1.143-1.802 3.366-1.802 5.104 0 2.028.9 3.532 3.009 3.532a3.377 3.377 0 0 0 2.396-1.05c1.126-1.128 1.755-3.479 1.755-5.144 0-1.804-.649-3.524-2.901-3.524a3.45 3.45 0 0 0-2.457 1.082zM144.85 27.541a17.83 17.83 0 0 1 3.841-.365c1.352 0 2.775.196 3.775.83a3.13 3.13 0 0 1 1.577 2.804c0 2.13-1.412 3.458-3.25 4.057l-.011.072c.853.377 1.23 1.324 1.369 2.622.18 1.614.295 3.487.545 4.08h-3.153c-.115-.38-.268-1.62-.406-3.381-.137-1.76-.718-2.275-1.925-2.275h-.937l-1.072 5.667h-3.043l2.69-14.11zm1.868 6.138h1.262c1.666 0 2.883-1.007 2.883-2.41 0-1.16-.971-1.679-2.196-1.679a5.448 5.448 0 0 0-1.196.104l-.753 3.985zM164.104 35.553h-5.093l-.664 3.473h5.734l-.495 2.617h-8.807l2.721-14.37h8.5l-.509 2.615h-5.405l-.593 3.075h5.122z" fill="#FF6300"/>
        <path d="M25.302 0c1.674 5.093 3.35 10.184 5.027 15.274.552 1.666.225 1.578 2.002 1.127a291.96 291.96 0 0 1 30.998-6.269c7.5-1.132 15.059-1.826 22.64-2.078 5.024-.109 10.05.117 15.045.676.34.03.668.144.952.334-.727 0-1.457.04-2.182 0-5.557-.363-11.097-.038-16.633.379-15.658 1.176-30.856 4.508-45.678 9.634-2.858.985-5.694 2.029-8.466 3.246-.676.295-.973.194-1.2-.537-.676-2.206-1.433-4.393-2.165-6.586-.095-.282-.122-.604-.37-.832-.304.092-.281.376-.35.59-.737 2.223-1.517 4.435-2.174 6.68-.262.901-.696 1.158-1.577 1.127-2.12-.093-4.245-.113-6.367-.14-.45 0-.9.077-1.563.142 2.104 1.524 4.009 2.93 5.937 4.296 1.87 1.33 1.351 1.127-.144 1.905-1.22.634-2.388 1.386-3.876 1.867.374-.922-.086-1.321-.676-1.745-4.58-3.296-9.147-6.608-13.703-9.936-.27-.197-.59-.339-.779-.717.306-.205.65-.117.964-.117 5.68 0 11.36-.019 17.038.018.852 0 1.264-.26 1.527-1.08 1.838-5.75 3.719-11.496 5.586-17.231L25.302 0z" fill="#363562"/>
        <path d="M9.579 47.797c.47-1.488.935-2.978 1.414-4.463 1.005-3.106 2.027-6.208 3.025-9.319a2.373 2.373 0 0 1 1.18-1.447c7.712-4.326 15.766-7.912 24.032-11.025a183.35 183.35 0 0 1 27.351-7.944A160.313 160.313 0 0 1 84.69 10.93a127.84 127.84 0 0 1 17.117-.349 110.827 110.827 0 0 1 26.68 4.389c.325.097.647.203.969.313.132.08.258.17.376.268-2.297-.56-4.376-1.1-6.468-1.577a106.917 106.917 0 0 0-29.505-2.288 123.128 123.128 0 0 0-27.887 5.139 148.28 148.28 0 0 0-24.394 9.918A165.975 165.975 0 0 0 12.67 45.48c-.977.789-1.923 1.618-2.883 2.43l-.21-.113z" fill="#FF6300"/>
        <path d="M40.838 48c-.725-.293-1.266-.798-1.854-1.222-3.621-2.61-7.24-5.226-10.856-7.846-.846-.614-.84-.647 0-1.265l6.696-4.923c.901-.66.982-.647 1.311.356 1.484 4.5 2.96 9.002 4.428 13.51.144.42.372.844.275 1.39z" fill="#FF6300"/>
    </g>
</svg>
