<svg width="97" height="97" xmlns="http://www.w3.org/2000/svg" xmlns:xlink="http://www.w3.org/1999/xlink">
    <defs>
        <filter x="-117.7%" y="-175.2%" width="335.4%" height="615.4%" filterUnits="objectBoundingBox" id="c">
            <feOffset dy="20" in="SourceAlpha" result="shadowOffsetOuter1"/>
            <feGaussianBlur stdDeviation="17.5" in="shadowOffsetOuter1" result="shadowBlurOuter1"/>
            <feColorMatrix values="0 0 0 0 1 0 0 0 0 0.388235294 0 0 0 0 0 0 0 0 0.15 0" in="shadowBlurOuter1"/>
        </filter>
        <filter x="-281.8%" y="-175.2%" width="663.5%" height="615.4%" filterUnits="objectBoundingBox" id="e">
            <feOffset dy="20" in="SourceAlpha" result="shadowOffsetOuter1"/>
            <feGaussianBlur stdDeviation="17.5" in="shadowOffsetOuter1" result="shadowBlurOuter1"/>
            <feColorMatrix values="0 0 0 0 1 0 0 0 0 0.388235294 0 0 0 0 0 0 0 0 0.15 0" in="shadowBlurOuter1"/>
        </filter>
        <filter x="-281.8%" y="-175.2%" width="663.5%" height="615.4%" filterUnits="objectBoundingBox" id="g">
            <feOffset dy="20" in="SourceAlpha" result="shadowOffsetOuter1"/>
            <feGaussianBlur stdDeviation="17.5" in="shadowOffsetOuter1" result="shadowBlurOuter1"/>
            <feColorMatrix values="0 0 0 0 1 0 0 0 0 0.388235294 0 0 0 0 0 0 0 0 0.15 0" in="shadowBlurOuter1"/>
        </filter>
        <path d="M53.097 71.853v6.768A1.38 1.38 0 0 1 51.717 80H1.38A1.38 1.38 0 0 1 0 78.62v-6.767C0 64.752 5.757 59 12.858 58.997a7.138 7.138 0 0 0 5.993-3.251 11.834 11.834 0 0 0 15.395 0 7.138 7.138 0 0 0 5.993 3.251c7.101.003 12.858 5.755 12.858 12.856z" id="d"/>
        <path d="M19.805 63.162c-.638.2-1.321.31-2.054.317-7.12.063-12.924 5.692-12.924 12.812v1.295A2.413 2.413 0 0 1 2.414 80H1.379A1.38 1.38 0 0 1 0 78.62v-6.767C0 64.752 5.757 59 12.858 58.997a7.138 7.138 0 0 0 5.993-3.251c.513.438 1.062.831 1.64 1.176 2.543 1.516 2.138 5.352-.686 6.24z" id="f"/>
        <path d="M33.292 63.162c.638.2 1.321.31 2.054.317 7.12.063 12.924 5.692 12.924 12.812v1.295A2.413 2.413 0 0 0 50.684 80h1.034a1.38 1.38 0 0 0 1.379-1.38v-6.767c0-7.101-5.757-12.853-12.858-12.856a7.138 7.138 0 0 1-5.993-3.251c-.513.438-1.062.831-1.64 1.176-2.543 1.516-2.138 5.352.686 6.24z" id="h"/>
        <circle id="a" cx="48.5" cy="48.5" r="48.5"/>
    </defs>
    <g fill="none" fill-rule="evenodd">
        <mask id="b" fill="#fff">
            <use xlink:href="#a"/>
        </mask>
        <use fill="#FFF" xlink:href="#a"/>
        <g mask="url(#b)">
            <path d="M75.097 88.853v6.768c0 .762-.617 1.379-1.38 1.379H23.38C22.617 97 22 96.383 22 95.62v-6.767c0-7.101 5.756-12.854 12.859-12.856a7.138 7.138 0 0 0 5.992-3.251c1.278-1.964 1.147-3.672 1.147-5.053l.025-.064c-6.188-2.561-10.541-8.659-10.541-15.774v-.54c-2.458 0-4.31-1.941-4.31-4.23v-7.164c-.055-2.495.058-11.292 6.413-17.417 7.389-7.122 19.097-6.539 27.58-2.73a.346.346 0 0 1-.013.635l-2.212.91c-.33.137-.26.625.095.662l1.074.116c5.779.617 10.587 4.067 12.985 8.154a.108.108 0 0 1-.017.126 10.427 10.427 0 0 0-2.98 7.3v9.158a4.48 4.48 0 0 1-4.482 4.48v.54c0 7.115-4.353 13.213-10.541 15.774l.025.064c0 1.342-.142 3.072 1.147 5.053a7.138 7.138 0 0 0 5.992 3.251c7.103.002 12.859 5.755 12.859 12.856z" fill="#FFD6A6" fill-rule="nonzero"/>
            <path d="M73.093 30.251a.106.106 0 0 1-.017.126 10.435 10.435 0 0 0-2.978 7.3v9.158a4.48 4.48 0 0 1-4.483 4.48c0-5.216.003-7.942.002-9.407 0-.926-.894-1.59-1.778-1.319-2.78.855-6.022 1.296-9.429.556-5.996-1.304-7.694-3.653-12.585-4.827-5.464-1.31-10.42 2.875-10.386 8.23.01 1.76.04 3.96.043 6.768-2.458 0-4.31-1.942-4.31-4.23V39.92c-.055-2.495.059-11.292 6.413-17.417 7.388-7.122 19.098-6.539 27.579-2.729a.345.345 0 0 1-.012.634l-2.212.911c-.33.136-.26.624.095.662l1.074.115c5.78.618 10.587 4.066 12.984 8.154z" fill="#42434D" fill-rule="nonzero"/>
            <path d="M63.838 40.59a1.377 1.377 0 0 1 1.78 1.317c0 1.516-.003 4.38-.003 9.948 0 7.115-4.353 13.213-10.542 15.774-11.19 4.646-23.592-3.607-23.592-15.774 0-3.146-.031-5.381-.043-7.307-.034-5.355 4.922-9.54 10.387-8.23 4.89 1.174 6.589 3.523 12.585 4.827 3.407.74 6.65.3 9.428-.556z" fill="#FFDFBA" fill-rule="nonzero"/>
            <g transform="translate(22 17)">
                <use fill="#000" filter="url(#c)" xlink:href="#d"/>
                <use fill="#FF6300" xlink:href="#d"/>
            </g>
            <path d="M62.512 94.07h-4.137a1.38 1.38 0 0 1 0-2.759h4.137a1.38 1.38 0 0 1 0 2.758z" fill="#FFF" fill-rule="nonzero"/>
            <g transform="translate(22 17)">
                <use fill="#000" filter="url(#e)" xlink:href="#f"/>
                <use fill="#FF6300" xlink:href="#f"/>
            </g>
            <g transform="translate(22 17)">
                <use fill="#000" filter="url(#g)" xlink:href="#h"/>
                <use fill="#FF6300" xlink:href="#h"/>
            </g>
            <path d="M55.294 70.524c-4.247 1.778-8.915 1.916-13.491 0 .234-.97.195-1.598.195-2.83l.025-.065a17.102 17.102 0 0 0 13.05 0l.026.064c0 1.233-.039 1.861.195 2.83z" fill="#F7C388" fill-rule="nonzero"/>
            <path d="M61.152 20.41c-1.625.668-1.985.903-2.731.78-13.68-2.252-24.45 4.9-25.924 18.877a2.1 2.1 0 0 1-.198.708c-1.049 2.135-.862 3.716-.84 6.343.023 2.765-4.142 2.942-4.282.18-.009-.172-.005.283-.005-7.377-.055-2.495.058-11.292 6.413-17.417 7.389-7.122 19.097-6.539 27.58-2.73a.346.346 0 0 1-.013.635z" fill="#4D4E59" fill-rule="nonzero"/>
            <path d="M44.686 62.878c2.805 1.754.592 6.059-2.479 4.827-6.305-2.531-10.725-8.679-10.725-15.85 0-3.15-.032-5.374-.043-7.307-.011-1.731.499-3.34 1.38-4.68 1.106-1.684 3.777-.95 3.791 1.232.012 1.94.044 4.154.044 7.308 0 6.292 3.307 11.515 8.032 14.47z" fill="#FFEBD2" fill-rule="nonzero"/>
        </g>
    </g>
</svg>
