<svg width="30" height="32" xmlns="http://www.w3.org/2000/svg">
    <g fill-rule="nonzero" fill="none">
        <path d="m29.004 24.361-4.62-4.62c-.8-.8-2.098-.8-2.898 0l-2.524 2.523a3.419 3.419 0 0 0-.995 2.628l.033.537a.215.215 0 0 1-.256.224 6.117 6.117 0 0 1-3.108-1.673L8.02 17.364a6.117 6.117 0 0 1-1.673-3.108A.215.215 0 0 1 6.57 14l.537.033a3.42 3.42 0 0 0 2.628-.995l2.524-2.524c.8-.8.8-2.097 0-2.897L7.639 2.996c-.8-.8-2.098-.8-2.898 0-.574.57-1.278 1.247-1.726 1.912-4.212 4.858-4.011 12.241.604 16.857l6.616 6.616c4.616 4.615 12 4.816 16.857.604.663-.447 1.344-1.154 1.912-1.726.8-.8.8-2.098 0-2.898z" fill="#363562"/>
        <path d="m29.004 24.361-1.6-1.6c.443.79.33 1.807-.342 2.48-.575.578-1.263 1.293-1.935 1.745-4.501 3.904-11.147 4.059-15.82.467l.929.928c4.615 4.615 11.998 4.816 16.856.604.663-.447 1.344-1.154 1.912-1.726.8-.8.8-2.098 0-2.898z" fill="#27265D"/>
        <g fill="#363562">
            <path d="M12.298 4.854a.495.495 0 0 1-.494-.484 1.121 1.121 0 0 0-1.1-1.1.495.495 0 0 1 .022-.99 2.107 2.107 0 0 1 1.448.62c.387.386.607.9.62 1.448a.495.495 0 0 1-.496.506zM14.579 4.575a.495.495 0 0 1-.493-.456A3.42 3.42 0 0 0 10.955.99a.495.495 0 0 1 .08-.987 4.41 4.41 0 0 1 4.038 4.038.495.495 0 0 1-.494.535z"/>
        </g>
    </g>
</svg>
