<svg width="155" height="156" viewBox="0 0 155 156" xmlns="http://www.w3.org/2000/svg" xmlns:xlink="http://www.w3.org/1999/xlink">
    <defs>
        <ellipse id="b" cx="42.5" cy="42.857" rx="42.5" ry="42.857"/>
        <filter x="-73.5%" y="-49.6%" width="247.1%" height="245.8%" filterUnits="objectBoundingBox" id="a">
            <feOffset dy="20" in="SourceAlpha" result="shadowOffsetOuter1"/>
            <feGaussianBlur stdDeviation="17.5" in="shadowOffsetOuter1" result="shadowBlurOuter1"/>
            <feColorMatrix values="0 0 0 0 1 0 0 0 0 0.388235294 0 0 0 0 0 0 0 0 0.15 0" in="shadowBlurOuter1"/>
        </filter>
    </defs>
    <g fill="none" fill-rule="evenodd">
        <g opacity=".1" transform="translate(35 15)">
            <use fill="#000" filter="url(#a)" xlink:href="#b"/>
            <use fill="#363562" xlink:href="#b"/>
        </g>
        <g fill="#363562">
            <path d="M114.517 74.724a2.482 2.482 0 0 0-2.483 2.483v-2.483a2.482 2.482 0 1 0-4.965 0v-2.483a2.482 2.482 0 1 0-4.966 0v-9.93a2.482 2.482 0 1 0-4.965 0v23.586a2.975 2.975 0 0 1-2.927-2.443l-1.635-8.99a2.706 2.706 0 0 0-5.37.484v.793c0 .149.013.298.038.444l2.233 13.4c.14.836.49 1.623 1.02 2.285l3.07 3.837a4.977 4.977 0 0 1 1.088 3.104V107h17.38v-3.224c0-1.127.383-2.222 1.088-3.102l2.79-3.487A4.965 4.965 0 0 0 117 94.086v-16.88a2.482 2.482 0 0 0-2.483-2.482z"/>
            <path d="M94.655 65.183V62.31a4.97 4.97 0 0 1 4.966-4.965 4.97 4.97 0 0 1 4.965 4.965v2.873c5.785-2.046 9.931-7.56 9.931-14.045a14.83 14.83 0 0 0-3.315-9.361L94.57 55.29l-4.517-4.516 1.756-1.755 2.932 2.932 14.73-11.968a14.824 14.824 0 0 0-9.85-3.742c-8.227 0-14.897 6.67-14.897 14.897 0 6.485 4.146 12 9.931 14.045z"/>
            <path d="m111.202 41.777 4.099-3.33-1.567-1.928-4.263 3.464a15.049 15.049 0 0 1 1.73 1.794zM62.38 65.084l-2.25 4.492-4.987.715 3.607 3.465-.856 4.92 4.485-2.324 4.485 2.325-.855-4.921 3.606-3.465-4.986-.715zM62.38 88.649l-1.87 3.698-4.107.583 2.97 2.824-.71 4.036 3.716-1.908 3.716 1.908-.71-4.036 2.97-2.824-4.106-.583zM58.664 53.859l3.715-1.908 3.716 1.908-.71-4.036L68.356 47l-4.106-.583-1.87-3.698-1.87 3.698-4.106.583 2.97 2.824z"/>
            <path d="M73.552 35H51.207A6.214 6.214 0 0 0 45 41.207v59.586A6.214 6.214 0 0 0 51.207 107h22.345a6.214 6.214 0 0 0 6.207-6.207V41.207A6.214 6.214 0 0 0 73.552 35zm-14.673 9.139 3.5-6.926 3.501 6.926 7.901 1.121-5.719 5.445 1.342 7.643-7.025-3.606-7.025 3.606 1.342-7.643-5.719-5.445 7.902-1.121zm9.183 52.497 1.342 7.643-7.025-3.606-7.025 3.606 1.342-7.643-5.719-5.445 7.902-1.12 3.5-6.927 3.501 6.926 7.901 1.121-5.719 5.445zm.619-22.005 1.488 8.554-7.79-4.037-7.79 4.037 1.49-8.554-6.326-6.077 8.738-1.25 3.888-7.767 3.888 7.766 8.738 1.251-6.324 6.077z"/>
        </g>
    </g>
</svg>
