<svg width="155" height="156" xmlns="http://www.w3.org/2000/svg" xmlns:xlink="http://www.w3.org/1999/xlink">
    <defs>
        <ellipse id="b" cx="42.5" cy="42.857" rx="42.5" ry="42.857"/>
        <filter x="-73.5%" y="-49.6%" width="247.1%" height="245.8%" filterUnits="objectBoundingBox" id="a">
            <feOffset dy="20" in="SourceAlpha" result="shadowOffsetOuter1"/>
            <feGaussianBlur stdDeviation="17.5" in="shadowOffsetOuter1" result="shadowBlurOuter1"/>
            <feColorMatrix values="0 0 0 0 1 0 0 0 0 0.388235294 0 0 0 0 0 0 0 0 0.15 0" in="shadowBlurOuter1"/>
        </filter>
    </defs>
    <g fill="none" fill-rule="evenodd">
        <g opacity=".1" transform="translate(35 15)">
            <use fill="#000" filter="url(#a)" xlink:href="#b"/>
            <use fill="#FF6300" xlink:href="#b"/>
        </g>
        <g fill="#FFEBCB">
            <path d="M75.486 96.942a6.67 6.67 0 0 0-6.337-4.567H58.72a7.04 7.04 0 0 1-7.032-7.031V39.25h-2.343A2.344 2.344 0 0 0 47 41.594v53.125a2.344 2.344 0 0 0 2.344 2.343h26.185c-.015-.04-.03-.08-.043-.12z"/>
            <path d="M79.812 37.049A16.03 16.03 0 0 0 69.15 33H58.72a2.344 2.344 0 0 0-2.344 2.344v50a2.344 2.344 0 0 0 2.344 2.343h10.43c4.78 0 9.02 2.974 10.663 7.435V37.049zM102.325 103.169A14.747 14.747 0 0 1 91.83 98.82a14.746 14.746 0 0 1-4.348-10.496c0-3.965 1.544-7.692 4.348-10.496 5.788-5.788 15.205-5.788 20.992 0a14.747 14.747 0 0 1 4.348 10.496c0 3.965-1.544 7.693-4.348 10.496a14.746 14.746 0 0 1-10.496 4.348zM117.312 75.8V41.595a2.344 2.344 0 0 0-2.343-2.344h-2.344v32.475a19.637 19.637 0 0 1 4.687 4.076z"/>
            <path d="M102.325 68.8c1.93 0 3.815.279 5.612.814v-34.27A2.344 2.344 0 0 0 105.594 33h-10.43A16.03 16.03 0 0 0 84.5 37.049v43.27a19.53 19.53 0 0 1 4.014-5.804c3.685-3.685 8.59-5.714 13.811-5.714zM125.4 103.667l-5.944-5.945a19.61 19.61 0 0 1-3.32 4.414 19.61 19.61 0 0 1-4.414 3.32l5.945 5.945a5.475 5.475 0 0 0 7.734 0 5.475 5.475 0 0 0 0-7.734z"/>
        </g>
    </g>
</svg>
