<svg width="162" height="60" xmlns="http://www.w3.org/2000/svg">
    <g fill-rule="nonzero" fill="none">
        <path d="M31.551 0c2.088 6.366 4.177 12.73 6.269 19.093.688 2.082.28 1.972 2.496 1.409a363.299 363.299 0 0 1 38.654-7.836 242.819 242.819 0 0 1 28.232-2.598 140.89 140.89 0 0 1 18.76.845c.425.036.834.18 1.189.417-.908 0-1.817.05-2.722 0-6.928-.454-13.837-.048-20.74.473-19.526 1.471-38.478 5.636-56.96 12.043-3.565 1.231-7.1 2.536-10.558 4.058-.842.369-1.213.242-1.497-.671-.842-2.759-1.786-5.492-2.699-8.233-.118-.352-.152-.755-.46-1.04-.38.116-.352.47-.439.738-.918 2.778-1.89 5.543-2.71 8.35-.326 1.126-.868 1.447-1.966 1.408-2.643-.116-5.294-.141-7.94-.175-.561 0-1.123.096-1.949.178 2.624 1.904 5 3.663 7.404 5.37 2.33 1.663 1.685 1.41-.18 2.381-1.522.792-2.977 1.733-4.834 2.333.467-1.152-.106-1.65-.842-2.18-5.71-4.12-11.407-8.26-17.087-12.421-.337-.245-.736-.423-.972-.896.382-.256.812-.147 1.202-.147 7.083 0 14.166-.022 21.247.023 1.061 0 1.575-.324 1.904-1.35 2.292-7.188 4.637-14.37 6.965-21.538L31.55 0z" fill="#363562"/>
        <path d="M11.945 59.746c.587-1.86 1.165-3.722 1.763-5.579 1.253-3.882 2.528-7.76 3.772-11.648a2.965 2.965 0 0 1 1.472-1.809c9.616-5.407 19.66-9.89 29.967-13.781a228.214 228.214 0 0 1 34.107-9.93 199.458 199.458 0 0 1 22.58-3.336c7.098-.624 14.229-.77 21.345-.437a137.895 137.895 0 0 1 33.27 5.486c.405.121.806.254 1.208.392.164.1.321.212.469.335-2.865-.701-5.457-1.375-8.066-1.972a133.011 133.011 0 0 0-36.792-2.86 153.207 153.207 0 0 0-34.775 6.424 184.649 184.649 0 0 0-30.42 12.398 206.915 206.915 0 0 0-36.044 23.42c-1.22.987-2.399 2.024-3.595 3.038l-.261-.14z" fill="#FF6300"/>
        <path d="M50.924 60c-.904-.366-1.578-.997-2.311-1.527a6192.737 6192.737 0 0 1-13.537-9.809c-1.056-.766-1.048-.808 0-1.58l8.35-6.154c1.123-.826 1.224-.809 1.634.445 1.85 5.624 3.69 11.253 5.522 16.886.18.527.463 1.057.342 1.739z" fill="#FF6300"/>
    </g>
</svg>
