<svg width="155" height="156" xmlns="http://www.w3.org/2000/svg" xmlns:xlink="http://www.w3.org/1999/xlink">
    <defs>
        <ellipse id="b" cx="42.5" cy="42.857" rx="42.5" ry="42.857"/>
        <filter x="-73.5%" y="-49.6%" width="247.1%" height="245.8%" filterUnits="objectBoundingBox" id="a">
            <feOffset dy="20" in="SourceAlpha" result="shadowOffsetOuter1"/>
            <feGaussianBlur stdDeviation="17.5" in="shadowOffsetOuter1" result="shadowBlurOuter1"/>
            <feColorMatrix values="0 0 0 0 1 0 0 0 0 0.388235294 0 0 0 0 0 0 0 0 0.15 0" in="shadowBlurOuter1"/>
        </filter>
    </defs>
    <g fill="none" fill-rule="evenodd">
        <g opacity=".1" transform="translate(35 15)">
            <use fill="#000" filter="url(#a)" xlink:href="#b"/>
            <use fill="#FF6300" xlink:href="#b"/>
        </g>
        <g fill="#FFEBCB">
            <path d="m117.182 45.198-36.674-9.13a2.28 2.28 0 0 0-1.103 0l-36.674 9.13a2.283 2.283 0 0 0 0 4.43l36.674 9.13a2.308 2.308 0 0 0 1.103 0l33.84-8.425V61.11a2.282 2.282 0 1 0 4.565 0V47.413a2.283 2.283 0 0 0-1.73-2.215z"/>
            <path d="M81.61 63.189a6.862 6.862 0 0 1-3.308 0L52.565 56.78V78.61h54.783V56.78L81.61 63.19zM118.913 85.457a2.282 2.282 0 0 0-2.283-2.283H52.413C46.12 83.174 41 88.294 41 94.587S46.12 106 52.413 106h64.217a2.282 2.282 0 1 0 0-4.565H52.413a6.856 6.856 0 0 1-6.848-6.848 6.856 6.856 0 0 1 6.848-6.848h64.217a2.282 2.282 0 0 0 2.283-2.282z"/>
            <path d="M50.13 94.587a2.285 2.285 0 0 0 2.283 2.283h61.935v-4.566H52.413a2.285 2.285 0 0 0-2.283 2.283z"/>
        </g>
    </g>
</svg>
