<svg width="32" height="32" xmlns="http://www.w3.org/2000/svg">
    <g fill-rule="nonzero" fill="none">
        <circle fill="#ECF4FF" cx="16" cy="16" r="16"/>
        <path d="M24.547 2.473a15.924 15.924 0 0 1 2.473 8.547c0 8.836-7.164 16-16 16-3.143 0-6.074-.907-8.547-2.473C5.309 29.026 10.307 32 16 32c8.837 0 16-7.163 16-16 0-5.693-2.974-10.691-7.453-13.527z" fill="#DDEAFB"/>
        <path d="m25.41 11.65-3.89 2.246a.32.32 0 0 1-.48-.277v-1.007c0-.885-.718-1.602-1.603-1.602H8.32c-.885 0-1.602.717-1.602 1.602v7.442c0 .885.717 1.602 1.602 1.602h11.117c.885 0 1.603-.717 1.603-1.602v-1.007c0-.247.267-.4.48-.277l3.89 2.245a.801.801 0 0 0 1.202-.693v-7.978a.801.801 0 0 0-1.202-.693z" fill="#524798"/>
        <path d="M25.41 21.015a.801.801 0 0 0 1.202-.693v-5.697a15.923 15.923 0 0 1-2.524 5.627l1.322.763z" fill="#453D81"/>
    </g>
</svg>
