<svg width="32" height="32" xmlns="http://www.w3.org/2000/svg">
    <g fill-rule="nonzero" fill="none">
        <path d="M16 0C7.163 0 0 7.182 0 16.042c.843 21.28 31.16 21.274 32 0C32 7.182 24.836 0 16 0z" fill="#2D8CFF"/>
        <path d="M25.49 20.554c-.017.842-.69 1.126-1.341.66-1.216-.853-2.423-1.718-3.634-2.576.003.397-.003 1.332 0 1.74-.001.754-.375 1.12-1.143 1.121H9.504C7.41 21.497 6.001 20.119 6 18.073v-6.451c0-.765.362-1.122 1.139-1.122 2.662.05 7.315.006 9.926.001 1.85.002 3.188 1.156 3.412 2.862 1.225-.867 2.444-1.74 3.672-2.603.566-.412 1.312-.28 1.341.66.008 2.952.018 6.177 0 9.134z" fill="#F1F1F1"/>
    </g>
</svg>
