<svg width="155" height="156" viewBox="0 0 155 156" xmlns="http://www.w3.org/2000/svg" xmlns:xlink="http://www.w3.org/1999/xlink">
    <defs>
        <ellipse id="b" cx="42.5" cy="42.857" rx="42.5" ry="42.857"/>
        <filter x="-73.5%" y="-49.6%" width="247.1%" height="245.8%" filterUnits="objectBoundingBox" id="a">
            <feOffset dy="20" in="SourceAlpha" result="shadowOffsetOuter1"/>
            <feGaussianBlur stdDeviation="17.5" in="shadowOffsetOuter1" result="shadowBlurOuter1"/>
            <feColorMatrix values="0 0 0 0 1 0 0 0 0 0.388235294 0 0 0 0 0 0 0 0 0.15 0" in="shadowBlurOuter1"/>
        </filter>
    </defs>
    <g fill="none" fill-rule="evenodd">
        <g opacity=".1" transform="translate(35 15)">
            <use fill="#000" filter="url(#a)" xlink:href="#b"/>
            <use fill="#363562" xlink:href="#b"/>
        </g>
        <path d="M101.297 28c-8.359 0-15.135 6.776-15.135 15.135 0 5.05 2.484 9.514 6.284 12.264a27.508 27.508 0 0 0-5.237 2.398c3.36 3.502 5.44 8.244 5.44 13.446-.136 4.221-1.295 7.44-3.446 10.811h47.77a2.157 2.157 0 0 0 2.162-2.162 2.157 2.157 0 0 0-2.162-2.162h-8.75c-.9-10.394-8.18-19.038-18.074-22.331 3.8-2.75 6.283-7.215 6.283-12.264 0-8.359-6.776-15.135-15.135-15.135zM73.19 56.108c-8.359 0-15.135 6.776-15.135 15.135 0 5.05 2.484 9.514 6.284 12.264C53.76 87.027 46.162 96.648 46.162 108h54.054c0-11.352-7.599-20.973-18.175-24.493 3.8-2.75 6.283-7.215 6.283-12.264 0-8.359-6.776-15.135-15.135-15.135zM46.162 77.73A2.157 2.157 0 0 0 44 79.892c0 1.198.964 2.162 2.162 2.162h11.014a20.764 20.764 0 0 1-2.23-4.324h-8.784z" fill="#363562"/>
    </g>
</svg>
