<svg width="155" height="156" viewBox="0 0 155 156" xmlns="http://www.w3.org/2000/svg" xmlns:xlink="http://www.w3.org/1999/xlink">
    <defs>
        <ellipse id="b" cx="42.5" cy="42.857" rx="42.5" ry="42.857"/>
        <filter x="-73.5%" y="-49.6%" width="247.1%" height="245.8%" filterUnits="objectBoundingBox" id="a">
            <feOffset dy="20" in="SourceAlpha" result="shadowOffsetOuter1"/>
            <feGaussianBlur stdDeviation="17.5" in="shadowOffsetOuter1" result="shadowBlurOuter1"/>
            <feColorMatrix values="0 0 0 0 1 0 0 0 0 0.388235294 0 0 0 0 0 0 0 0 0.15 0" in="shadowBlurOuter1"/>
        </filter>
    </defs>
    <g fill="none" fill-rule="evenodd">
        <g opacity=".1" transform="translate(35 15)">
            <use fill="#000" filter="url(#a)" xlink:href="#b"/>
            <use fill="#363562" xlink:href="#b"/>
        </g>
        <g fill="#363562">
            <path d="M87.97 34c-5.895 0-11.536 1.432-16.589 3.874 1.01 1.263 1.768 2.694 2.19 4.378l.505 1.853c3.2-1.684 6.82-2.779 10.526-3.2v4.21a3.378 3.378 0 0 0 3.368 3.369 3.378 3.378 0 0 0 3.368-3.369v-4.21c5.895.674 11.284 2.947 15.747 6.568l-3.031 2.947c-1.348 1.348-1.348 3.453 0 4.716.673.674 1.515 1.01 2.357 1.01.843 0 1.685-.336 2.358-1.01l2.948-2.947a30.402 30.402 0 0 1 6.568 15.662h-4.21a3.378 3.378 0 0 0-3.369 3.369 3.378 3.378 0 0 0 3.368 3.368h4.21c-.673 5.895-2.946 11.284-6.567 15.747l-2.948-2.947c-1.347-1.348-3.452-1.348-4.715 0-1.348 1.347-1.348 3.452 0 4.715L107 95.051c-2.61 2.105-5.474 3.705-8.673 4.884l.842 1.263a11.065 11.065 0 0 1 1.768 4.968c14.147-5.305 24.252-18.947 24.252-34.946 0-20.547-16.673-37.22-37.22-37.22z"/>
            <path d="M87.97 55.22a3.378 3.378 0 0 0-3.368 3.369v12.715a3.378 3.378 0 0 0 3.368 3.368h10.779a3.378 3.378 0 0 0 3.368-3.368 3.378 3.378 0 0 0-3.368-3.368h-7.495v-9.432c.084-1.852-1.431-3.284-3.284-3.284zM86.286 93.535c-1.853-2.863-5.81-3.705-8.59-1.769l-5.389 3.621c-.336.253-.926.169-1.179-.168-6.568-8.252-10.778-17.936-12.462-28.294-.084-.42.252-.926.673-1.01l6.4-1.516c3.368-.758 5.39-4.126 4.632-7.495l-3.285-13.052c-.673-2.61-3.452-4.042-5.978-3.115-12.463 4.8-21.642 17.43-9.179 45.977 12.463 28.546 27.873 30.483 39.83 24.589 2.442-1.18 3.369-4.21 1.853-6.484l-7.326-11.284z"/>
        </g>
    </g>
</svg>
