<svg width="155" height="156" xmlns="http://www.w3.org/2000/svg" xmlns:xlink="http://www.w3.org/1999/xlink">
    <defs>
        <ellipse id="b" cx="42.5" cy="42.857" rx="42.5" ry="42.857"/>
        <filter x="-73.5%" y="-49.6%" width="247.1%" height="245.8%" filterUnits="objectBoundingBox" id="a">
            <feOffset dy="20" in="SourceAlpha" result="shadowOffsetOuter1"/>
            <feGaussianBlur stdDeviation="17.5" in="shadowOffsetOuter1" result="shadowBlurOuter1"/>
            <feColorMatrix values="0 0 0 0 1 0 0 0 0 0.388235294 0 0 0 0 0 0 0 0 0.15 0" in="shadowBlurOuter1"/>
        </filter>
    </defs>
    <g fill="none" fill-rule="evenodd">
        <g opacity=".1" transform="translate(35 15)">
            <use fill="#000" filter="url(#a)" xlink:href="#b"/>
            <use fill="#FF6300" xlink:href="#b"/>
        </g>
        <path d="M109.793 36H65.138c-.667 0-1.207.54-1.207 1.207v20.931L51.594 45.802a1.207 1.207 0 0 0-1.706 0l-3.414-3.414a1.207 1.207 0 0 0-1.707 0l-3.413 3.414a1.207 1.207 0 0 0 0 1.706l3.413 3.414a1.207 1.207 0 0 0 0 1.707l3.25 3.25-.691 3.462c-.08.395.044.805.33 1.09l9.387 9.387 1.707-1.706-8.931-8.931.25-1.25 13.862 13.862v33c0 .667.54 1.207 1.207 1.207h44.655c.667 0 1.207-.54 1.207-1.207V37.207c0-.667-.54-1.207-1.207-1.207zM94.811 88.005a1.207 1.207 0 0 1 1.706 1.098v1.88l8.025-3.01.847 2.26-9.655 3.621a1.207 1.207 0 0 1-1.63-1.13v-1.746l-11.57 5.259a1.207 1.207 0 0 1-1.706-1.1v-3.982l-9.07 5.039-1.172-2.11 10.862-6.034a1.207 1.207 0 0 1 1.793 1.053v4.16l11.57-5.258zm9.73-14.514.848 2.26-9.655 3.62a1.207 1.207 0 0 1-1.63-1.13v-1.668l-7.909 3.955-1.08-2.16 9.656-4.827a1.207 1.207 0 0 1 1.746 1.08V76.5l8.024-3.01zM82.534 53.995a1.207 1.207 0 0 1-1.706-1.098v-3.983l-9.07 5.039-1.172-2.11 10.862-6.035a1.207 1.207 0 0 1 1.793 1.054v4.16l11.57-5.259a1.207 1.207 0 0 1 1.706 1.1v1.878l8.025-3.009.847 2.26-9.655 3.62a1.207 1.207 0 0 1-1.63-1.13v-1.746l-11.57 5.26zM69.966 43.241v-2.413h3.62v2.413h-3.62zm4.827 0v-2.413h3.62v2.413h-3.62zm6.655 17.049a1.207 1.207 0 0 1 1.793 1.055v4.16l11.57-5.259a1.207 1.207 0 0 1 1.706 1.099v1.879l8.025-3.01.847 2.26-9.655 3.621a1.207 1.207 0 0 1-1.63-1.13V63.22l-11.57 5.259a1.207 1.207 0 0 1-1.706-1.099v-3.982l-7.483 4.156-1.775-1.775 9.878-5.488zm-1.893 20.3-3.538-1.18 2.359-2.358 1.18 3.538zM47.327 51.775l3.414-3.413 26.456 26.455-3.415 3.414-26.455-26.456z" fill="#FFEBCB"/>
    </g>
</svg>
