<svg width="155" height="156" xmlns="http://www.w3.org/2000/svg" xmlns:xlink="http://www.w3.org/1999/xlink">
    <defs>
        <ellipse id="b" cx="42.5" cy="42.857" rx="42.5" ry="42.857"/>
        <filter x="-73.5%" y="-49.6%" width="247.1%" height="245.8%" filterUnits="objectBoundingBox" id="a">
            <feOffset dy="20" in="SourceAlpha" result="shadowOffsetOuter1"/>
            <feGaussianBlur stdDeviation="17.5" in="shadowOffsetOuter1" result="shadowBlurOuter1"/>
            <feColorMatrix values="0 0 0 0 1 0 0 0 0 0.388235294 0 0 0 0 0 0 0 0 0.15 0" in="shadowBlurOuter1"/>
        </filter>
    </defs>
    <g fill="none" fill-rule="evenodd">
        <g opacity=".1" transform="translate(35 15)">
            <use fill="#000" filter="url(#a)" xlink:href="#b"/>
            <use fill="#FF6300" xlink:href="#b"/>
        </g>
        <g fill="#FFEBCB">
            <path d="M47.343 89.085A6.423 6.423 0 0 1 45 88.642v2.785c0 3.6 2.924 6.444 6.444 6.444h57.112c3.6 0 6.444-2.924 6.444-6.444v-2.781a6.431 6.431 0 0 1-2.343.439H47.343zM97.573 104.898h-6.736v-2.925H69.163v2.925h-6.736a2.05 2.05 0 0 0 0 4.102h35.146a2.05 2.05 0 0 0 0-4.102zM108.556 39H51.444C47.844 39 45 41.924 45 45.444v37.197a2.345 2.345 0 0 0 2.343 2.342h65.314A2.345 2.345 0 0 0 115 82.641V45.444c0-3.52-2.843-6.444-6.444-6.444zM63.877 74.82a2.05 2.05 0 1 1-2.9 2.9l-.747-.747-.746.747a2.05 2.05 0 1 1-2.9-2.9l.746-.747-.746-.747a2.05 2.05 0 1 1 2.9-2.9l.746.747.747-.747a2.05 2.05 0 0 1 2.9 2.9l-.746.747.746.746zm2.197-14.673L61.68 64.54c-.4.4-.926.6-1.45.6-.525 0-1.05-.2-1.45-.6l-2.197-2.197a2.05 2.05 0 0 1 2.9-2.9l.747.747 2.943-2.944a2.05 2.05 0 1 1 2.9 2.9zm35.892 15.977H73.41a2.05 2.05 0 0 1 0-4.102h28.556a2.05 2.05 0 0 1 0 4.102zm0-13.18H73.41a2.05 2.05 0 0 1 0-4.102h28.556a2.05 2.05 0 0 1 0 4.102zm0-13.18H58.034a2.05 2.05 0 0 1 0-4.101h43.932a2.05 2.05 0 0 1 0 4.101z"/>
        </g>
    </g>
</svg>
