<svg width="32" height="27" xmlns="http://www.w3.org/2000/svg">
    <g fill-rule="nonzero" fill="none">
        <path d="m30.205 3.194-4.79 3.953v-4.94A2.2 2.2 0 0 0 23.22 0H7.496L0 7.544V24.29a2.2 2.2 0 0 0 2.194 2.207H23.22a2.2 2.2 0 0 0 2.194-2.207v-4.755l4.812 3.97c.72.567 1.774.05 1.774-.871V4.048c0-.933-1.077-1.445-1.795-.854zM18.1 18.952H7.496V7.544h10.605v11.408z" fill="#F5BB41"/>
        <path d="M0 18.952v5.337a2.2 2.2 0 0 0 2.194 2.207h5.302v-7.544H0z" fill="#2167D1"/>
        <path fill="#3D84F3" d="M0 7.544h7.496v11.408H0z"/>
        <path d="m30.205 3.194-4.79 3.953v12.387l4.811 3.97c.72.567 1.774.05 1.774-.871V4.048c0-.933-1.077-1.445-1.795-.854zM18.1 13.248v5.704H7.497v7.544H23.22a2.2 2.2 0 0 0 2.194-2.207v-4.755l-7.313-6.286z" fill="#4CA853"/>
        <path fill="#398039" d="M25.414 19.534V7.15l-7.313 6.098z"/>
        <path fill="#D74F3F" d="M0 7.544h7.496V0z"/>
        <path d="M23.22 0H7.496v7.544h10.605v5.704l7.313-6.098V2.207A2.2 2.2 0 0 0 23.22 0z" fill="#F5BB41"/>
    </g>
</svg>
