<?xml version="1.0" encoding="UTF-8"?>
<svg width="87px" height="88px" viewBox="0 0 87 88" version="1.1" xmlns="http://www.w3.org/2000/svg" xmlns:xlink="http://www.w3.org/1999/xlink">
    <title>5D0B04BD-3004-4505-A05F-D58CACF11760</title>
    <defs>
        <circle id="path-1" cx="20" cy="20" r="20"></circle>
        <filter x="-22.5%" y="-20.0%" width="150.0%" height="150.0%" filterUnits="objectBoundingBox" id="filter-2">
            <feOffset dx="1" dy="2" in="SourceAlpha" result="shadowOffsetOuter1"></feOffset>
            <feGaussianBlur stdDeviation="3" in="shadowOffsetOuter1" result="shadowBlurOuter1"></feGaussianBlur>
            <feColorMatrix values="0 0 0 0 0.376470588   0 0 0 0 0.380392157   0 0 0 0 0.439215686  0 0 0 0.1 0" type="matrix" in="shadowBlurOuter1" result="shadowMatrixOuter1"></feColorMatrix>
            <feOffset dx="0" dy="0" in="SourceAlpha" result="shadowOffsetOuter2"></feOffset>
            <feColorMatrix values="0 0 0 0 0.156862745   0 0 0 0 0.160784314   0 0 0 0 0.239215686  0 0 0 0.04 0" type="matrix" in="shadowOffsetOuter2" result="shadowMatrixOuter2"></feColorMatrix>
            <feMerge>
                <feMergeNode in="shadowMatrixOuter1"></feMergeNode>
                <feMergeNode in="shadowMatrixOuter2"></feMergeNode>
            </feMerge>
        </filter>
        <path d="M13.8769957,0 L3.11524393,0 C1.39751516,0 0,1.39751516 0,3.11524393 L0,13.8769957 C0,15.5947245 1.39751516,16.9926419 3.11524393,16.9926419 L13.8769957,16.9926419 C15.5947245,16.9926419 16.9926419,15.5951267 16.9926419,13.8769957 L16.9926419,3.11524393 C16.9926419,1.39751516 15.5951267,0 13.8769957,0 Z M8.49611981,14.0902032 C5.41185132,14.0902032 2.90243866,11.5807906 2.90243866,8.49611981 C2.90243866,5.41185132 5.41185132,2.90243866 8.49611981,2.90243866 C11.5807906,2.90243866 14.0902032,5.41185132 14.0902032,8.49611981 C14.0902032,11.5803883 11.5803883,14.0902032 8.49611981,14.0902032 Z M14.2700217,4.05898906 C13.5398864,4.05898906 12.9461235,3.46522614 12.9461235,2.73549312 C12.9461235,2.0057601 13.5398864,1.41199718 14.2700217,1.41199718 C14.9997547,1.41199718 15.5935176,2.0057601 15.5935176,2.73549312 C15.5935176,3.46522614 14.9997547,4.05898906 14.2700217,4.05898906 Z" id="path-3"></path>
        <filter x="-367.8%" y="-250.1%" width="835.6%" height="835.6%" filterUnits="objectBoundingBox" id="filter-4">
            <feOffset dx="0" dy="20" in="SourceAlpha" result="shadowOffsetOuter1"></feOffset>
            <feGaussianBlur stdDeviation="17.5" in="shadowOffsetOuter1" result="shadowBlurOuter1"></feGaussianBlur>
            <feColorMatrix values="0 0 0 0 1   0 0 0 0 0.388235294   0 0 0 0 0  0 0 0 0.15 0" type="matrix" in="shadowBlurOuter1"></feColorMatrix>
        </filter>
        <path d="M8.51025826,4.337064 C6.21006426,4.337064 4.337064,6.20902486 4.337064,8.50921886 C4.337064,10.8104523 6.21006426,12.6829328 8.51025826,12.6829328 C10.8114917,12.6829328 12.6829328,10.8104523 12.6829328,8.50921886 C12.6829328,6.20954456 10.810972,4.337064 8.51025826,4.337064 Z" id="path-5"></path>
        <filter x="-748.9%" y="-509.2%" width="1597.7%" height="1597.7%" filterUnits="objectBoundingBox" id="filter-6">
            <feOffset dx="0" dy="20" in="SourceAlpha" result="shadowOffsetOuter1"></feOffset>
            <feGaussianBlur stdDeviation="17.5" in="shadowOffsetOuter1" result="shadowBlurOuter1"></feGaussianBlur>
            <feColorMatrix values="0 0 0 0 1   0 0 0 0 0.388235294   0 0 0 0 0  0 0 0 0.15 0" type="matrix" in="shadowBlurOuter1"></feColorMatrix>
        </filter>
    </defs>
    <g id="Page-1" stroke="none" stroke-width="1" fill="none" fill-rule="evenodd">
        <g id="Home" transform="translate(-1115.000000, -7582.000000)">
            <g id="Footer" transform="translate(0.000000, 7526.000000)">
                <g id="Group-2" transform="translate(1087.000000, 60.000000)">
                    <g id="linkedin-copy-2" transform="translate(52.000000, 0.000000)">
                        <g id="Oval" fill-rule="nonzero">
                            <use fill="black" fill-opacity="1" filter="url(#filter-2)" xlink:href="#path-1"></use>
                            <use fill="#FFFFFF" xlink:href="#path-1"></use>
                        </g>
                        <g id="Group-3" transform="translate(11.000000, 12.000000)">
                            <g id="Shape">
                                <use fill="black" fill-opacity="1" filter="url(#filter-4)" xlink:href="#path-3"></use>
                                <use fill="#FF6300" fill-rule="evenodd" xlink:href="#path-3"></use>
                            </g>
                            <g id="Path">
                                <use fill="black" fill-opacity="1" filter="url(#filter-6)" xlink:href="#path-5"></use>
                                <use fill="#FF6300" fill-rule="evenodd" xlink:href="#path-5"></use>
                            </g>
                        </g>
                    </g>
                </g>
            </g>
        </g>
    </g>
</svg>