<?xml version="1.0" encoding="UTF-8"?>
<svg width="155px" height="145px" viewBox="0 0 155 145" version="1.1" xmlns="http://www.w3.org/2000/svg" xmlns:xlink="http://www.w3.org/1999/xlink">
    <title>1C52E946-5992-4765-85EB-3221FCC8D5FA</title>
    <defs>
        <path d="M101.931427,74.213358 L19.0426689,74.213358 C18.4809441,74.213358 18.0255565,73.7579704 18.0255565,73.1962456 L18.0255565,0.542694602 C18.0255565,0.0772940567 18.573864,-0.171426889 18.9241159,0.135168737 L87.3341912,60.0348623 L102.326938,73.1626021 C102.743075,73.5270725 102.485142,74.213358 101.931427,74.213358 Z" id="path-1"></path>
        <filter x="-74.0%" y="-57.3%" width="247.9%" height="268.4%" filterUnits="objectBoundingBox" id="filter-2">
            <feOffset dx="0" dy="20" in="SourceAlpha" result="shadowOffsetOuter1"></feOffset>
            <feGaussianBlur stdDeviation="17.5" in="shadowOffsetOuter1" result="shadowBlurOuter1"></feGaussianBlur>
            <feColorMatrix values="0 0 0 0 1   0 0 0 0 0.388235294   0 0 0 0 0  0 0 0 0.15 0" type="matrix" in="shadowBlurOuter1"></feColorMatrix>
        </filter>
        <path d="M87.3337907,60.0346621 L18.9239157,0.135168737 C18.5736637,-0.171426889 18.0253562,0.0772940567 18.0253562,0.542694602 L18.0253562,5.89279829 L79.8597463,60.0348623 L96.0528416,74.2135583 L101.931427,74.2135583 C102.485142,74.2135583 102.743075,73.5272727 102.326537,73.1624019 L87.3337907,60.0346621 Z" id="path-3"></path>
        <filter x="-74.0%" y="-57.3%" width="247.9%" height="268.4%" filterUnits="objectBoundingBox" id="filter-4">
            <feOffset dx="0" dy="20" in="SourceAlpha" result="shadowOffsetOuter1"></feOffset>
            <feGaussianBlur stdDeviation="17.5" in="shadowOffsetOuter1" result="shadowBlurOuter1"></feGaussianBlur>
            <feColorMatrix values="0 0 0 0 1   0 0 0 0 0.388235294   0 0 0 0 0  0 0 0 0.15 0" type="matrix" in="shadowBlurOuter1"></feColorMatrix>
        </filter>
    </defs>
    <g id="Page-1" stroke="none" stroke-width="1" fill="none" fill-rule="evenodd">
        <g id="Home" transform="translate(-777.000000, -3710.000000)">
            <g id="courses" transform="translate(0.000000, 3090.000000)">
                <g id="Group-25-Copy-4" transform="translate(703.000000, 578.000000)">
                    <g id="Group-24" transform="translate(80.000000, 50.000000)">
                        <circle id="Oval" fill="#FFEBCB" cx="54" cy="54" r="54"></circle>
                        <g id="trigonometry" transform="translate(11.000000, 7.000000)">
                            <g id="Path">
                                <use fill="black" fill-opacity="1" filter="url(#filter-2)" xlink:href="#path-1"></use>
                                <use fill="#FF6300" fill-rule="evenodd" xlink:href="#path-1"></use>
                            </g>
                            <g id="Path">
                                <use fill="black" fill-opacity="1" filter="url(#filter-4)" xlink:href="#path-3"></use>
                                <use fill="#F05F02" fill-rule="evenodd" xlink:href="#path-3"></use>
                            </g>
                            <g id="Group" transform="translate(0.000000, 5.638770)" fill="#363562">
                                <path d="M11.5688248,54.0174032 C10.9105754,53.4799096 9.94092417,53.5776357 9.40323034,54.2356848 L7.60611137,56.4357237 L7.60611137,5.84884726 L9.40323034,8.04888615 C9.70762313,8.42136679 10.149994,8.6144159 10.5961697,8.6144159 C10.9386116,8.6144159 11.283056,8.50086938 11.5688248,8.26736808 C12.2270742,7.72967425 12.3248003,6.76002302 11.7871065,6.10197389 L7.25906354,0.558420577 C6.67851441,-0.186140192 5.4555363,-0.186140192 4.87518743,0.558420577 L0.347144517,6.10177363 C-0.190549314,6.76002302 -0.0928232101,7.72967425 0.565426184,8.26716782 C1.22387584,8.80506191 2.19352706,8.7073358 2.73102063,8.04868589 L4.52793935,5.84884726 L4.52793935,56.4355235 L2.73102063,54.2356848 C2.1933268,53.577836 1.22387584,53.4799096 0.565426184,54.0174032 C-0.0928232101,54.555097 -0.190549314,55.5247482 0.347144517,56.1829976 L4.87518743,61.7261504 C5.45613708,62.4705109 6.6781139,62.4703107 7.25906354,61.7261504 L11.7871065,56.1829976 C12.3248003,55.5247482 12.2272744,54.5552973 11.5688248,54.0174032 L11.5688248,54.0174032 Z" id="Path"></path>
                                <path d="M98.8762849,50.3146252 C99.6955421,50.226912 100.318746,49.4078551 100.200994,48.5952065 L99.2924219,41.4956453 C99.1846829,40.6525574 98.4130872,40.0569889 97.5703998,40.1643274 C96.7273119,40.2722667 96.1313429,41.0432616 96.2390819,41.8863495 L96.5997473,44.7039853 L53.9248804,4.25979677 L56.7579361,4.46866629 C57.6024258,4.5307464 58.3433819,3.89472569 58.4060628,3.04703184 C58.4685434,2.19933799 57.8321222,1.46158601 56.9844283,1.39890512 L49.8462173,0.872425764 C48.9064046,0.782309479 48.0657198,1.66905372 48.2063012,2.60265843 L49.1150739,9.70241984 C49.2146023,10.4794225 49.8768568,11.046354 50.6398414,11.046354 C50.7049254,11.046354 50.7708104,11.0421486 50.8370959,11.0337378 C51.6801838,10.9257985 52.2763531,10.1548036 52.1684138,9.31171569 L51.8077484,6.49407985 L94.4824151,46.9380681 L91.6493594,46.7291986 C90.8024666,46.6679195 90.0639136,47.3029389 90.0012327,48.150833 C89.9387521,48.9985269 90.5751733,49.7362789 91.4228671,49.7989598 L98.5610782,50.3254391 C98.6662138,50.3320477 98.7721505,50.3314469 98.8762849,50.3146252 L98.8762849,50.3146252 Z" id="Path"></path>
                                <path d="M95.616879,82.3405509 C96.2196568,81.7223532 96.1413558,80.6345495 95.4642821,80.1020624 L89.9211293,75.5740195 C89.2628799,75.0365259 88.2932287,75.1338515 87.7555349,75.7923011 C87.217841,76.4505505 87.3155672,77.420402 87.9738165,77.9578956 L90.1736552,79.7548143 L31.378587,79.7548143 L33.5784256,77.9578956 C34.236675,77.4202018 34.3344011,76.4505505 33.7967073,75.7925014 C33.2588132,75.1340518 32.2895625,75.0365259 31.6311128,75.5740195 L26.0877598,80.1020624 C25.3433993,80.6828118 25.3433993,81.9051891 26.0877598,82.4859385 L31.6311128,87.0141817 C31.9168816,87.247683 32.2615263,87.3612295 32.6037679,87.3612295 C33.0499437,87.3612295 33.4923145,87.1681804 33.7967073,86.7959 C34.3344011,86.1376506 34.236675,85.1679994 33.5784256,84.6303056 L31.3783867,82.8331866 L90.1734549,82.8331866 L87.973416,84.6303056 C87.3151666,85.1681997 87.2174405,86.1376506 87.7551344,86.7959 C88.0593269,87.1681804 88.501898,87.3612295 88.9480737,87.3612295 C89.2903153,87.3612295 89.6347598,87.247683 89.9207288,87.0141817 L95.4638816,82.4859385 C95.5181516,82.4408804 95.5706193,82.3936194 95.616879,82.3405509 L95.616879,82.3405509 Z" id="Path"></path>
                                <path d="M101.931427,68.5745875 L82.0037128,68.5745875 C82.0037128,63.1419774 84.0157091,58.1837794 87.3337907,54.3958916 L102.326537,67.5236314 C102.743075,67.888302 102.485142,68.5745875 101.931427,68.5745875 Z" id="Path"></path>
                            </g>
                            <path d="M87.3337907,60.0346621 C86.245987,61.2764645 85.3017686,62.6460317 84.5197595,64.1149272 L96.0528416,74.213358 L101.931427,74.213358 C102.485142,74.213358 102.743075,73.5270725 102.326537,73.1622016 L87.3337907,60.0346621 Z" id="Path" fill="#363562"></path>
                            <path d="M31.2508221,74.213358 L19.0426689,74.213358 C18.4809441,74.213358 18.0255565,73.7579704 18.0255565,73.1962456 L18.0255565,60.0346621 L29.0089292,60.0346621 C30.2473272,60.0346621 31.2510224,61.0385575 31.2510224,62.2767552 L31.2510224,74.213358 L31.2508221,74.213358 Z" id="Path" fill="#F3F3F3" fill-rule="nonzero"></path>
                        </g>
                    </g>
                </g>
            </g>
        </g>
    </g>
</svg>