<svg width="155" height="156" viewBox="0 0 155 156" xmlns="http://www.w3.org/2000/svg" xmlns:xlink="http://www.w3.org/1999/xlink">
    <defs>
        <ellipse id="b" cx="42.5" cy="42.857" rx="42.5" ry="42.857"/>
        <filter x="-73.5%" y="-49.6%" width="247.1%" height="245.8%" filterUnits="objectBoundingBox" id="a">
            <feOffset dy="20" in="SourceAlpha" result="shadowOffsetOuter1"/>
            <feGaussianBlur stdDeviation="17.5" in="shadowOffsetOuter1" result="shadowBlurOuter1"/>
            <feColorMatrix values="0 0 0 0 1 0 0 0 0 0.388235294 0 0 0 0 0 0 0 0 0.15 0" in="shadowBlurOuter1"/>
        </filter>
    </defs>
    <g fill="none" fill-rule="evenodd">
        <g opacity=".1" transform="translate(35 15)">
            <use fill="#000" filter="url(#a)" xlink:href="#b"/>
            <use fill="#363562" xlink:href="#b"/>
        </g>
        <g fill="#363562">
            <path d="M73.474 64.034a12.831 12.831 0 1 0 18.12 18.172 12.831 12.831 0 0 0-18.12-18.172z"/>
            <path d="m107.5 97.16 1.783 1.782 1.783 1.784V58.523a6.598 6.598 0 0 0-1.943-4.69l-15.89-15.89A6.66 6.66 0 0 0 88.543 36H60.58A6.59 6.59 0 0 0 54 42.563v66.874A6.59 6.59 0 0 0 60.563 116h43.923a6.59 6.59 0 0 0 6.58-6.58v-1.133l-1.783-1.783-1.783-1.784-15.916-15.898c-8.24 4.735-18.736 2.314-24.07-5.55-5.334-7.865-3.7-18.513 3.746-24.416 7.447-5.904 18.186-5.066 24.627 1.921 6.44 6.987 6.403 17.76-.086 24.701L107.5 97.16z"/>
        </g>
    </g>
</svg>
