<svg width="155" height="156" viewBox="0 0 155 156" xmlns="http://www.w3.org/2000/svg" xmlns:xlink="http://www.w3.org/1999/xlink">
    <defs>
        <ellipse id="b" cx="42.5" cy="42.857" rx="42.5" ry="42.857"/>
        <filter x="-73.5%" y="-49.6%" width="247.1%" height="245.8%" filterUnits="objectBoundingBox" id="a">
            <feOffset dy="20" in="SourceAlpha" result="shadowOffsetOuter1"/>
            <feGaussianBlur stdDeviation="17.5" in="shadowOffsetOuter1" result="shadowBlurOuter1"/>
            <feColorMatrix values="0 0 0 0 1 0 0 0 0 0.388235294 0 0 0 0 0 0 0 0 0.15 0" in="shadowBlurOuter1"/>
        </filter>
    </defs>
    <g fill="none" fill-rule="evenodd">
        <g opacity=".1" transform="translate(35 15)">
            <use fill="#000" filter="url(#a)" xlink:href="#b"/>
            <use fill="#363562" xlink:href="#b"/>
        </g>
        <g fill="#363562">
            <path d="M64.172 88.172c-5.324 0-9.655 4.331-9.655 9.656 0 5.324 4.331 9.655 9.655 9.655 5.325 0 9.656-4.331 9.656-9.655 0-5.325-4.331-9.656-9.656-9.656zm1.293 15.657a1.383 1.383 0 0 1-2.268.491l-4.138-4.138 1.95-1.95 2.624 2.623 3.386-9.029 2.584.968-4.138 11.035zM64.172 60.586c-5.324 0-9.655 4.331-9.655 9.655 0 5.325 4.331 9.656 9.655 9.656 5.325 0 9.656-4.331 9.656-9.656 0-5.324-4.331-9.655-9.656-9.655zm5.114 12.818-1.95 1.95-3.164-3.162-3.162 3.162-1.95-1.95 3.162-3.163-3.163-3.162 1.95-1.95 3.163 3.162 3.163-3.163 1.95 1.95-3.162 3.163 3.163 3.163zM99.463 46.793l-6.325-6.325v6.325z"/>
            <path d="M92.785 82.655h-13.44v-2.758h12.241a20.4 20.4 0 0 1-.79-2.76H79.345V74.38H90.45c-.03-.458-.07-.913-.07-1.379 0-7.921 4.48-14.81 11.034-18.284v-5.164h-9.655a1.38 1.38 0 0 1-1.38-1.38v-9.655H49V113h52.414V91.284a20.815 20.815 0 0 1-8.63-8.629zm-28.613 27.586c-6.844 0-12.413-5.57-12.413-12.413 0-6.845 5.57-12.414 12.413-12.414 6.845 0 12.414 5.57 12.414 12.414 0 6.844-5.57 12.413-12.414 12.413zm0-27.586c-6.844 0-12.413-5.57-12.413-12.414 0-6.844 5.57-12.413 12.413-12.413 6.845 0 12.414 5.57 12.414 12.413 0 6.845-5.57 12.414-12.414 12.414zm34.483 27.586h-19.31v-2.758h19.31v2.758zm0-5.517h-19.31v-2.758h19.31v2.758z"/>
            <path d="m92.734 36.163 11.033 11.033c.25.25.405.596.405.976v5.345a20.4 20.4 0 0 1 2.759-.79V33H54.517v2.759H91.76c.38 0 .725.154.975.404zM111.069 55.069c-9.887 0-17.931 8.044-17.931 17.931s8.044 17.931 17.931 17.931S129 82.887 129 73s-8.044-17.931-17.931-17.931zM98.655 73h-2.758c0-8.366 6.806-15.172 15.172-15.172v2.758c-6.844 0-12.414 5.57-12.414 12.414zm12.414 15.172v-2.758c6.844 0 12.414-5.57 12.414-12.414h2.758c0 8.366-6.807 15.172-15.172 15.172zM109.69 93.62v2.828h2.758V93.62c-.458.03-.913.07-1.379.07-.466 0-.921-.04-1.38-.07zM109.69 99.207h2.759V113h-2.759z"/>
        </g>
    </g>
</svg>
